<?xml version="1.0" encoding="UTF-8"?>
<svg version="1.1" xmlns="http://www.w3.org/2000/svg" width="1024" height="1024">
<path d="M0 0 C337.92 0 675.84 0 1024 0 C1024 337.92 1024 675.84 1024 1024 C686.08 1024 348.16 1024 0 1024 C0 686.08 0 348.16 0 0 Z " fill="#FAFAFB" transform="translate(0,0)"/>
<path d="M0 0 C1.70269643 1.31387172 3.39120418 2.64641058 5.0625 4 C5.82820312 4.60199219 6.59390625 5.20398438 7.3828125 5.82421875 C15.44112119 12.5207575 22.83535822 21.36923039 27.0625 31 C26.8868118 37.6761515 22.23527061 44.10778618 18.0625 49 C17.7325 49.66 17.4025 50.32 17.0625 51 C17.98804688 50.68546875 18.91359375 50.3709375 19.8671875 50.046875 C29.03023004 47.07756462 38.16476525 45.14182287 47.6875 43.6875 C48.80108887 43.51637695 49.91467773 43.34525391 51.06201172 43.16894531 C56.44721568 42.38507995 61.62052405 41.78949377 67.0625 42 C67.0625 37.71 67.0625 33.42 67.0625 29 C65.4125 29.12375 63.7625 29.2475 62.0625 29.375 C56.6477742 29.375 53.69471609 28.25816626 49.65625 24.69140625 C45.76059619 20.55704816 44.88295866 17.05553655 44.6875 11.5 C44.85912615 6.22249578 45.62187684 2.38855653 49.52734375 -1.43359375 C53.62577836 -4.9708735 55.91356801 -6.12105219 61.22729492 -6.19287109 C62.30569138 -6.20893402 63.38408783 -6.22499695 64.49516296 -6.24154663 C69.43923353 -6.28598838 74.38316888 -6.32707667 79.32739258 -6.35009766 C81.9336033 -6.36664297 84.5397689 -6.3939137 87.14575195 -6.43212891 C90.9033971 -6.4869572 94.65997717 -6.50878401 98.41796875 -6.5234375 C99.5786235 -6.54610687 100.73927826 -6.56877625 101.93510437 -6.59213257 C109.01553455 -6.57368962 112.84121665 -5.91102339 118.0625 -1 C121.59828504 4.70287909 121.80085096 10.39475226 121.0625 17 C119.1963704 22.13185641 116.5566465 25.68729132 111.6875 28.25 C109.0625 29 109.0625 29 103.0625 29 C103.0625 33.29 103.0625 37.58 103.0625 42 C104.75632812 41.96519531 104.75632812 41.96519531 106.484375 41.9296875 C111.16351605 41.93584967 115.68827088 42.43989487 120.3125 43.125 C121.59229736 43.31425049 121.59229736 43.31425049 122.89794922 43.50732422 C132.89289798 45.11623156 143.94695028 47.44222514 153.0625 52 C151.88958386 47.01510642 148.98925372 45.21609944 144.9375 42.52734375 C142.29753882 40.37687537 141.37567179 38.29632586 140.5859375 35.02734375 C140.08615126 27.99087954 143.18603666 23.75103288 147.67138672 18.55810547 C163.84829452 0.43928736 182.31291114 -13.4838027 207.3125 -15.2265625 C219.40785626 -15.52894641 231.81539714 -13.5596363 243.0625 -9 C244.88201172 -8.27490234 244.88201172 -8.27490234 246.73828125 -7.53515625 C275.36150276 4.22362823 303.14064584 28.66749775 315.5 57.4375 C321.9021916 72.88666322 323.68516253 91.73290908 319.0625 108 C318.87945313 108.77859375 318.69640625 109.5571875 318.5078125 110.359375 C314.28852849 126.71561178 302.5183982 143.37490643 288.0078125 152.2578125 C282.24831435 154.45521139 276.27558663 151.33299776 271.0625 149 C271.50734741 149.88800293 271.50734741 149.88800293 271.96118164 150.79394531 C280.99494913 168.94190478 288.62542822 187.00997442 292.640625 206.94189453 C293.05174754 208.9475444 293.50880249 210.93867053 293.96875 212.93359375 C296.11534921 222.98649111 296.3531763 233.01040623 296.375 243.25 C296.37858521 243.92523712 296.38217041 244.60047424 296.38586426 245.2961731 C296.48460084 279.86605584 286.06062147 309.94790698 262.0625 335 C257.37677394 339.63552185 252.71615695 343.26893966 247 346.5625 C244.24240716 348.18695185 244.24240716 348.18695185 242.0625 350 C241.08054845 354.1544104 241.92081193 356.49523625 243.0625 360.5625 C244.65250049 366.48147994 245.09297312 372.96848953 244.0625 379 C239.01945237 384.93111713 233.01179493 386.72670474 225.875 389.3125 C224.69357422 389.76689453 223.51214844 390.22128906 222.29492188 390.68945312 C215.69727896 393.12016367 209.15386868 395.43610719 202.0625 394 C194.81365027 389.35377759 192.67655163 378.72164897 190.0625 371 C184.62848892 370.86174529 179.90680381 371.28361622 174.5625 372.4375 C167.49452198 373.88910996 160.5934537 374.48774895 153.390625 374.7890625 C150.29428673 374.87370469 150.29428673 374.87370469 148.29516602 375.47973633 C98.52915045 387.07638796 34.67891693 379.124632 -14.9375 369 C-15.09605469 369.61746094 -15.25460937 370.23492188 -15.41796875 370.87109375 C-17.82714133 379.61599091 -20.88985065 388.10829157 -28.9375 393 C-35.64151261 393.64125338 -40.49392079 392.03756022 -46.625 389.4375 C-47.49624512 389.07688477 -48.36749023 388.71626953 -49.26513672 388.34472656 C-68.12029935 380.40168039 -68.12029935 380.40168039 -71.2734375 376.234375 C-73.16550665 369.86811881 -71.36686277 364.14781447 -69.4375 358.0625 C-69.19902344 357.28326172 -68.96054687 356.50402344 -68.71484375 355.70117188 C-68.13107822 353.79809624 -67.53550024 351.89865078 -66.9375 350 C-68.02998047 349.59974609 -68.02998047 349.59974609 -69.14453125 349.19140625 C-81.88392172 343.75712081 -93.07066162 332.11618467 -100.9375 321 C-100.9375 320.34 -100.9375 319.68 -100.9375 319 C-101.75089844 319.2165625 -102.56429687 319.433125 -103.40234375 319.65625 C-121.58027196 324.07293447 -139.80575522 322.96825339 -156.9375 315 C-157.58589844 314.72671875 -158.23429687 314.4534375 -158.90234375 314.171875 C-171.27233807 308.60664238 -183.52608573 298.04444598 -189.9375 286 C-189.9375 285.34 -189.9375 284.68 -189.9375 284 C-190.9275 283.67 -191.9175 283.34 -192.9375 283 C-194.06038174 280.66066303 -195.00470344 278.40972444 -195.9375 276 C-196.67419922 274.35257813 -196.67419922 274.35257813 -197.42578125 272.671875 C-204.9698134 254.34786927 -203.9329265 232.29280811 -196.9375 214 C-194.94128028 209.46981705 -192.47200631 205.24619895 -189.9375 201 C-189.49792969 200.02546875 -189.05835938 199.0509375 -188.60546875 198.046875 C-186.52795586 194.25188657 -183.95442656 191.56514178 -180.875 188.5625 C-180.29862793 187.9948291 -179.72225586 187.4271582 -179.12841797 186.84228516 C-172.51255963 180.4497006 -165.643786 175.19230487 -156.9375 172 C-155.28814453 171.38125 -155.28814453 171.38125 -153.60546875 170.75 C-145.51654973 167.76853456 -138.67218886 165.8640058 -130.0078125 165.90234375 C-128.71875 165.90556641 -127.4296875 165.90878906 -126.1015625 165.91210938 C-124.75520764 165.92046267 -123.40885348 165.92892759 -122.0625 165.9375 C-120.69270996 165.9425217 -119.32291815 165.94708343 -117.953125 165.95117188 C-114.6145381 165.96292746 -111.27604185 165.97936036 -107.9375 166 C-107.70562988 165.47043701 -107.47375977 164.94087402 -107.23486328 164.39526367 C-106.18034584 161.99137496 -105.12147389 159.58942866 -104.0625 157.1875 C-103.69769531 156.35412109 -103.33289063 155.52074219 -102.95703125 154.66210938 C-102.60253906 153.85966797 -102.24804688 153.05722656 -101.8828125 152.23046875 C-101.55812988 151.49207764 -101.23344727 150.75368652 -100.89892578 149.99291992 C-99.9375 148 -99.9375 148 -97.9375 145 C-98.61554688 145.433125 -99.29359375 145.86625 -99.9921875 146.3125 C-106.28387429 150.07705498 -111.5511996 152.77463061 -118.9375 151 C-122.34452786 149.43276718 -125.07853381 147.41192784 -127.9375 145 C-128.60523438 144.443125 -129.27296875 143.88625 -129.9609375 143.3125 C-139.71061592 134.37208342 -145.96997146 122.4627073 -149.9375 110 C-150.25589844 109.06027344 -150.57429688 108.12054688 -150.90234375 107.15234375 C-157.01322265 86.67949141 -151.4317663 65.4511213 -141.9375 47 C-127.48837075 20.36485812 -99.75655789 -2.46141224 -70.84277344 -11.42285156 C-45.35174752 -18.77495283 -21.65097609 -15.28836334 0 0 Z " fill="#FAFAFB" transform="translate(438.9375,304)"/>
<path d="M0 0 C1.70269643 1.31387172 3.39120418 2.64641058 5.0625 4 C5.82820312 4.60199219 6.59390625 5.20398438 7.3828125 5.82421875 C15.44112119 12.5207575 22.83535822 21.36923039 27.0625 31 C26.8868118 37.6761515 22.23527061 44.10778618 18.0625 49 C17.7325 49.66 17.4025 50.32 17.0625 51 C17.98804688 50.68546875 18.91359375 50.3709375 19.8671875 50.046875 C29.03023004 47.07756462 38.16476525 45.14182287 47.6875 43.6875 C48.80108887 43.51637695 49.91467773 43.34525391 51.06201172 43.16894531 C56.44721568 42.38507995 61.62052405 41.78949377 67.0625 42 C67.0625 37.71 67.0625 33.42 67.0625 29 C64.5875 29.185625 64.5875 29.185625 62.0625 29.375 C56.6477742 29.375 53.69471609 28.25816626 49.65625 24.69140625 C45.76059619 20.55704816 44.88295866 17.05553655 44.6875 11.5 C44.85912615 6.22249578 45.62187684 2.38855653 49.52734375 -1.43359375 C53.62577836 -4.9708735 55.91356801 -6.12105219 61.22729492 -6.19287109 C62.30569138 -6.20893402 63.38408783 -6.22499695 64.49516296 -6.24154663 C69.43923353 -6.28598838 74.38316888 -6.32707667 79.32739258 -6.35009766 C81.9336033 -6.36664297 84.5397689 -6.3939137 87.14575195 -6.43212891 C90.9033971 -6.4869572 94.65997717 -6.50878401 98.41796875 -6.5234375 C99.5786235 -6.54610687 100.73927826 -6.56877625 101.93510437 -6.59213257 C109.01553455 -6.57368962 112.84121665 -5.91102339 118.0625 -1 C121.59828504 4.70287909 121.80085096 10.39475226 121.0625 17 C119.1963704 22.13185641 116.5566465 25.68729132 111.6875 28.25 C109.0625 29 109.0625 29 103.0625 29 C103.0625 33.29 103.0625 37.58 103.0625 42 C104.75632812 41.96519531 104.75632812 41.96519531 106.484375 41.9296875 C111.16351605 41.93584967 115.68827088 42.43989487 120.3125 43.125 C121.59229736 43.31425049 121.59229736 43.31425049 122.89794922 43.50732422 C132.89289798 45.11623156 143.94695028 47.44222514 153.0625 52 C151.88958386 47.01510642 148.98925372 45.21609944 144.9375 42.52734375 C142.29753882 40.37687537 141.37567179 38.29632586 140.5859375 35.02734375 C140.08615126 27.99087954 143.18603666 23.75103288 147.67138672 18.55810547 C163.84829452 0.43928736 182.31291114 -13.4838027 207.3125 -15.2265625 C219.40785626 -15.52894641 231.81539714 -13.5596363 243.0625 -9 C244.88201172 -8.27490234 244.88201172 -8.27490234 246.73828125 -7.53515625 C275.36150276 4.22362823 303.14064584 28.66749775 315.5 57.4375 C321.9021916 72.88666322 323.68516253 91.73290908 319.0625 108 C318.78792969 109.16789062 318.78792969 109.16789062 318.5078125 110.359375 C314.28852849 126.71561178 302.5183982 143.37490643 288.0078125 152.2578125 C282.24831435 154.45521139 276.27558663 151.33299776 271.0625 149 C271.50734741 149.88800293 271.50734741 149.88800293 271.96118164 150.79394531 C280.99494913 168.94190478 288.62542822 187.00997442 292.640625 206.94189453 C293.05174754 208.9475444 293.50880249 210.93867053 293.96875 212.93359375 C296.11534921 222.98649111 296.3531763 233.01040623 296.375 243.25 C296.37858521 243.92523712 296.38217041 244.60047424 296.38586426 245.2961731 C296.48460084 279.86605584 286.06062147 309.94790698 262.0625 335 C257.37677394 339.63552185 252.71615695 343.26893966 247 346.5625 C244.24240716 348.18695185 244.24240716 348.18695185 242.0625 350 C241.08054845 354.1544104 241.92081193 356.49523625 243.0625 360.5625 C244.65250049 366.48147994 245.09297312 372.96848953 244.0625 379 C239.01945237 384.93111713 233.01179493 386.72670474 225.875 389.3125 C224.69357422 389.76689453 223.51214844 390.22128906 222.29492188 390.68945312 C215.69727896 393.12016367 209.15386868 395.43610719 202.0625 394 C194.81365027 389.35377759 192.67655163 378.72164897 190.0625 371 C184.62848892 370.86174529 179.90680381 371.28361622 174.5625 372.4375 C167.49452198 373.88910996 160.5934537 374.48774895 153.390625 374.7890625 C150.29428673 374.87370469 150.29428673 374.87370469 148.29516602 375.47973633 C98.52915045 387.07638796 34.67891693 379.124632 -14.9375 369 C-15.09605469 369.61746094 -15.25460937 370.23492188 -15.41796875 370.87109375 C-17.82714133 379.61599091 -20.88985065 388.10829157 -28.9375 393 C-35.64151261 393.64125338 -40.49392079 392.03756022 -46.625 389.4375 C-47.49624512 389.07688477 -48.36749023 388.71626953 -49.26513672 388.34472656 C-68.12029935 380.40168039 -68.12029935 380.40168039 -71.2734375 376.234375 C-73.16550665 369.86811881 -71.36686277 364.14781447 -69.4375 358.0625 C-69.19902344 357.28326172 -68.96054687 356.50402344 -68.71484375 355.70117188 C-68.13107822 353.79809624 -67.53550024 351.89865078 -66.9375 350 C-67.66582031 349.73316406 -68.39414062 349.46632813 -69.14453125 349.19140625 C-81.88392172 343.75712081 -93.07066162 332.11618467 -100.9375 321 C-100.9375 320.34 -100.9375 319.68 -100.9375 319 C-99.43509766 318.43732422 -99.43509766 318.43732422 -97.90234375 317.86328125 C-90.94148108 315.20290633 -84.79305604 312.70990377 -78.9375 308 C-78.16277344 307.56429688 -77.38804687 307.12859375 -76.58984375 306.6796875 C-73.49193967 304.71783366 -71.18118339 302.43684828 -68.625 299.8125 C-67.30048828 298.46091797 -67.30048828 298.46091797 -65.94921875 297.08203125 C-64.95341797 296.05142578 -64.95341797 296.05142578 -63.9375 295 C-61.47340542 297.44668049 -59.02974469 299.9020884 -56.6484375 302.4296875 C-44.23851024 315.42068158 -27.19817167 324.208513 -9.9375 329 C-9.17131348 329.22397461 -8.40512695 329.44794922 -7.61572266 329.67871094 C10.36605531 334.88013552 28.48803749 337.19746147 47.0625 339 C48.12960205 339.1045752 49.1967041 339.20915039 50.29614258 339.31689453 C59.649649 340.13777687 68.99185346 340.24228136 78.375 340.25 C79.66216919 340.25151062 79.66216919 340.25151062 80.9753418 340.25305176 C127.86256435 340.21641101 188.14285466 338.89991846 225.0625 306 C225.82175781 305.33484375 226.58101562 304.6696875 227.36328125 303.984375 C243.47562723 288.95731657 252.48978249 266.17152054 253.375 244.33984375 C253.7174781 227.02743203 251.83902726 210.62435465 247.0625 194 C246.73765625 192.824375 246.4128125 191.64875 246.078125 190.4375 C236.97501834 160.3576693 217.13982638 131.63382296 192.0625 112.625 C191.32193359 112.06337158 190.58136719 111.50174316 189.81835938 110.9230957 C177.75247589 101.91103478 164.86930155 94.96701807 151.0625 89 C150.41732422 88.72027344 149.77214844 88.44054687 149.10742188 88.15234375 C129.21645731 79.70633418 107.0387219 75.5939687 85.5 75.6875 C84.19313232 75.69096436 82.88626465 75.69442871 81.53979492 75.69799805 C70.83518913 75.81716489 60.53073831 76.77402609 50.0625 79 C49.09828125 79.20496094 48.1340625 79.40992188 47.140625 79.62109375 C44.40329346 80.30542663 41.74880515 81.13544202 39.0625 82 C37.53259063 82.45325514 36.0026383 82.90636527 34.47265625 83.359375 C9.10547735 91.09961062 -13.0033251 104.49492821 -31.9375 123 C-33.30261719 124.27230469 -33.30261719 124.27230469 -34.6953125 125.5703125 C-49.99486921 140.17245352 -67.28018138 162.69706165 -70.9375 184 C-73.51243049 182.77509701 -75.97986689 181.4115406 -78.44140625 179.9765625 C-87.60172324 174.65234717 -96.40335064 169.94591747 -106.9375 168 C-106.44801418 162.08732203 -104.63599319 157.77453032 -101.875 152.5625 C-101.49794922 151.83095703 -101.12089844 151.09941406 -100.73242188 150.34570312 C-99.80990704 148.55906047 -98.8749688 146.77884171 -97.9375 145 C-98.61554688 145.433125 -99.29359375 145.86625 -99.9921875 146.3125 C-106.28387429 150.07705498 -111.5511996 152.77463061 -118.9375 151 C-122.34452786 149.43276718 -125.07853381 147.41192784 -127.9375 145 C-128.60523438 144.443125 -129.27296875 143.88625 -129.9609375 143.3125 C-139.71061592 134.37208342 -145.96997146 122.4627073 -149.9375 110 C-150.25589844 109.06027344 -150.57429688 108.12054688 -150.90234375 107.15234375 C-157.01322265 86.67949141 -151.4317663 65.4511213 -141.9375 47 C-127.48837075 20.36485812 -99.75655789 -2.46141224 -70.84277344 -11.42285156 C-45.35174752 -18.77495283 -21.65097609 -15.28836334 0 0 Z " fill="#377ED0" transform="translate(438.9375,304)"/>
<path d="M0 0 C0.98608749 0.00212242 0.98608749 0.00212242 1.99209595 0.00428772 C4.07029981 0.00983863 6.14839177 0.0223816 8.2265625 0.03515625 C9.64452968 0.04017761 11.06249857 0.0447394 12.48046875 0.04882812 C15.93753572 0.05979188 19.39453817 0.07702204 22.8515625 0.09765625 C22.8515625 0.75765625 22.8515625 1.41765625 22.8515625 2.09765625 C24.58792969 2.24847656 24.58792969 2.24847656 26.359375 2.40234375 C30.85550513 2.97004694 34.61983922 4.35710976 38.7265625 6.22265625 C39.41693604 6.53106445 40.10730957 6.83947266 40.81860352 7.15722656 C46.55849036 9.80238511 52.16275728 12.80224285 56.8515625 17.09765625 C57.1815625 18.08765625 57.5115625 19.07765625 57.8515625 20.09765625 C59.16046163 20.81110232 60.49762222 21.47390314 61.8515625 22.09765625 C75.53004299 32.61444417 82.91717432 51.66508244 85.8515625 68.09765625 C88.13520656 68.29702528 88.13520656 68.29702528 90.5 66.12109375 C94.49991855 63.70622451 96.84545618 63.62056773 101.4765625 63.72265625 C103.41402344 63.74199219 103.41402344 63.74199219 105.390625 63.76171875 C108.4974786 64.06328693 110.25680549 64.45123683 112.8515625 66.09765625 C112.34496094 65.11925781 112.34496094 65.11925781 111.828125 64.12109375 C111.38210938 63.24710938 110.93609375 62.373125 110.4765625 61.47265625 C109.81527344 60.18488281 109.81527344 60.18488281 109.140625 58.87109375 C104.64305282 49.19449907 104.36166864 38.87441236 107.4765625 28.66015625 C111.28790499 18.71868247 118.5309628 10.65458281 127.9765625 5.66015625 C135.56931906 2.63092177 144.50471532 2.92523605 152.1640625 5.59765625 C162.39287196 10.43492575 167.5964405 17.83977285 171.8515625 28.09765625 C175.24712578 38.28434609 172.97678831 50.66932214 168.6640625 60.16015625 C164.13268908 68.7486896 157.86397191 73.59122044 148.8515625 77.09765625 C140.95516496 79.10971908 132.49811675 78.87822143 124.8515625 76.09765625 C125.3465625 77.00515625 125.8415625 77.91265625 126.3515625 78.84765625 C128.86182802 84.80953686 129.07112839 91.54194413 126.97265625 97.66015625 C123.61830901 104.21386439 118.80994387 109.02404662 112.0390625 111.97265625 C104.60058674 114.37077488 97.79849413 113.78143336 90.8359375 110.3125 C87.95229857 108.54712262 85.99094942 106.72013054 83.8515625 104.09765625 C83.8515625 103.43765625 83.8515625 102.77765625 83.8515625 102.09765625 C81.16726597 103.43980451 80.97617309 105.15084242 79.87890625 107.8203125 C72.85166036 123.39781954 60.69700224 139.84678302 44.8515625 147.09765625 C43.91183594 147.52820313 42.97210938 147.95875 42.00390625 148.40234375 C21.36777939 157.40235779 -1.31284074 159.36456704 -22.5859375 151.16015625 C-24.11356933 150.48789791 -25.63511201 149.80152857 -27.1484375 149.09765625 C-27.79683594 148.824375 -28.44523437 148.55109375 -29.11328125 148.26953125 C-41.48327557 142.70429863 -53.73702323 132.14210223 -60.1484375 120.09765625 C-60.1484375 119.43765625 -60.1484375 118.77765625 -60.1484375 118.09765625 C-61.1384375 117.76765625 -62.1284375 117.43765625 -63.1484375 117.09765625 C-64.27131924 114.75831928 -65.21564094 112.50738069 -66.1484375 110.09765625 C-66.63957031 108.999375 -67.13070312 107.90109375 -67.63671875 106.76953125 C-75.1807509 88.44552552 -74.143864 66.39046436 -67.1484375 48.09765625 C-65.15221778 43.5674733 -62.68294381 39.3438552 -60.1484375 35.09765625 C-59.70886719 34.123125 -59.26929688 33.14859375 -58.81640625 32.14453125 C-56.73889336 28.34954282 -54.16536406 25.66279803 -51.0859375 22.66015625 C-50.50956543 22.09248535 -49.93319336 21.52481445 -49.33935547 20.93994141 C-42.72349713 14.54735685 -35.8547235 9.28996112 -27.1484375 6.09765625 C-26.04886719 5.68515625 -24.94929688 5.27265625 -23.81640625 4.84765625 C-15.63738123 1.83297896 -8.75972333 -0.03743472 0 0 Z " fill="#F9BC35" transform="translate(309.1484375,469.90234375)"/>
<path d="M0 0 C1.21300781 0.48339844 2.42601562 0.96679688 3.67578125 1.46484375 C32.29900276 13.22362823 60.07814584 37.66749775 72.4375 66.4375 C78.8396916 81.88666322 80.62266253 100.73290908 76 117 C75.72542969 118.16789062 75.72542969 118.16789062 75.4453125 119.359375 C71.2606622 135.58135272 60.27565488 149.99929972 47 160 C44.203125 161.24609375 44.203125 161.24609375 42 162 C41.75507812 160.70707031 41.51015625 159.41414062 41.2578125 158.08203125 C40.10793553 152.93175045 38.17792714 148.41781055 35.875 143.6875 C35.47466553 142.85718262 35.07433105 142.02686523 34.66186523 141.17138672 C31.31371554 134.36927971 27.50753621 128.10342474 23 122 C22.26394531 120.98035156 21.52789063 119.96070313 20.76953125 118.91015625 C-9.23289527 78.13172866 -53.57995643 51.74366217 -102 39 C-96.19859435 22.71585642 -77.55897139 8.44084601 -62.75 0.625 C-42.91577098 -8.48466677 -20.13805441 -8.16407611 0 0 Z " fill="#3C86D5" transform="translate(682,295)"/>
<path d="M0 0 C1.70269643 1.31387172 3.39120418 2.64641058 5.0625 4 C5.82820312 4.60199219 6.59390625 5.20398438 7.3828125 5.82421875 C11.99892876 9.66025962 15.81210904 13.91658576 19.5 18.625 C19.92547119 19.16342529 20.35094238 19.70185059 20.78930664 20.2565918 C23.4037773 23.7120514 24.78598761 26.89096853 26.0625 31 C25.34408936 31.17015625 24.62567871 31.3403125 23.88549805 31.515625 C-3.37249296 38.0545864 -27.74874054 47.43828043 -49.9375 65 C-50.84628906 65.71800781 -51.75507813 66.43601562 -52.69140625 67.17578125 C-68.77797275 80.13005386 -83.80286613 94.23322955 -95.9375 111 C-96.36514648 111.58861816 -96.79279297 112.17723633 -97.23339844 112.78369141 C-102.43693549 120.03752448 -106.91854718 127.52752297 -110.9375 135.5 C-111.31148926 136.2415332 -111.68547852 136.98306641 -112.07080078 137.74707031 C-114.19543224 142.09867768 -115.75114875 146.3040263 -116.9375 151 C-129.09903613 147.77494079 -137.87328496 135.36905905 -143.9375 125 C-145.94797216 121.08731187 -147.5284476 117.16499312 -148.9375 113 C-149.329375 111.86046875 -149.72125 110.7209375 -150.125 109.546875 C-156.7555299 87.90556212 -152.09019517 66.73070949 -141.9375 47 C-127.48837075 20.36485812 -99.75655789 -2.46141224 -70.84277344 -11.42285156 C-45.35174752 -18.77495283 -21.65097609 -15.28836334 0 0 Z " fill="#3C87D5" transform="translate(438.9375,304)"/>
<path d="M0 0 C9.42373193 5.30870232 15.91267338 12.0844876 19.21875 22.5078125 C22.18584171 35.32350378 20.49595805 46.35111651 13.95703125 57.734375 C8.51955422 65.68947838 0.63820984 69.48122608 -8.65625 71.3203125 C-18.00534747 72.53141201 -26.47760143 69.85117891 -34.09375 64.3828125 C-40.47698109 59.16962377 -44.90281627 52.41937366 -46.65625 44.3203125 C-47.39650565 35.29928796 -47.77918656 25.56618563 -43.65625 17.3203125 C-43.099375 16.1446875 -42.5425 14.9690625 -41.96875 13.7578125 C-33.00519813 -0.89742439 -16.01099928 -7.43367824 0 0 Z " fill="#161B22" transform="translate(617.65625,476.6796875)"/>
<path d="M0 0 C8.46473024 5.72573623 12.80758577 13.42275732 16 23 C16.63352359 36.24506303 15.79851922 48.05092878 7.46875 59.015625 C0.50204128 66.57384672 -8.44400765 69.98320034 -18.5625 70.4375 C-27.602827 70.35956615 -35.95874538 65.86445551 -42.5390625 59.765625 C-50.38094915 50.28826467 -51.95290752 38.87560997 -51 27 C-48.62471871 15.38001598 -42.49903783 6.9355267 -33 0 C-23.16256892 -6.45046255 -9.97239507 -5.93956525 0 0 Z " fill="#161B22" transform="translate(466,478)"/>
<path d="M0 0 C-1.0820356 8.65628483 -6.30961963 16.58696925 -13 22 C-16.26911476 23.50318979 -19.54461393 24.57299958 -22.9765625 25.65234375 C-62.3257828 38.25623786 -96.24351582 69.95911067 -117.99584961 104.21728516 C-121.94118775 110.41523703 -125.18037156 114.82534538 -132 118 C-132.97066406 118.54333984 -132.97066406 118.54333984 -133.9609375 119.09765625 C-136.2422977 120.1072237 -137.77272497 120.20757583 -140.25 120.125 C-141.4875 120.08375 -142.725 120.0425 -144 120 C-144 96.18385448 -115.59565277 68.46676623 -100.125 52.8125 C-92.84672478 45.55173345 -85.28108652 39.07484909 -77 33 C-76.09378906 32.29875 -75.18757813 31.5975 -74.25390625 30.875 C-66.63256365 25.07689092 -58.42473783 20.50380366 -50 16 C-49.39220703 15.67080566 -48.78441406 15.34161133 -48.15820312 15.00244141 C-34.54013027 7.67050108 -15.88260495 -0.65270979 0 0 Z " fill="#1B438B" transform="translate(466,335)"/>
<path d="M0 0 C29.80859242 3.42065815 59.99397332 20.47302276 83 39 C83.89460937 39.70382812 84.78921875 40.40765625 85.7109375 41.1328125 C110.45510332 60.91396512 133.95764268 86.26430032 144 117 C144.15625 120.40625 144.15625 120.40625 144 123 C143.34 123 142.68 123 142 123 C141.608125 122.5875 141.21625 122.175 140.8125 121.75 C139.13365775 120.12904887 137.60773111 119.02106278 135.625 117.8125 C134.77808594 117.29623047 134.77808594 117.29623047 133.9140625 116.76953125 C131.96717184 115.81867563 131.96717184 115.81867563 129.58251953 116.21484375 C127 116 127 116 125.29003906 114.24682617 C124.78698242 113.43705322 124.28392578 112.62728027 123.765625 111.79296875 C123.19634277 110.90158203 122.62706055 110.01019531 122.04052734 109.09179688 C121.44965332 108.13337891 120.8587793 107.17496094 120.25 106.1875 C119.00143504 104.24089289 117.74885798 102.29685305 116.4921875 100.35546875 C115.88987305 99.42138184 115.28755859 98.48729492 114.66699219 97.52490234 C108.6018011 88.33828749 100.84877785 80.36602529 93.30712891 72.38623047 C92.241759 71.25638917 91.1875592 70.11602353 90.13671875 68.97265625 C72.80568512 50.6955116 48.37140473 37.98235099 25.59375 28.04296875 C13.18545999 22.57455499 13.18545999 22.57455499 10 17 C8.00958282 15.39856248 5.95962256 13.95237196 3.83984375 12.52734375 C1.76412959 10.8041925 0.93507914 9.51752076 0 7 C-0.0777346 4.66796188 -0.08967728 2.33160941 0 0 Z " fill="#1B438D" transform="translate(580,334)"/>
<path d="M0 0 C2.30859375 1.40234375 2.30859375 1.40234375 4 3 C4 3.66 4 4.32 4 5 C4.66 5 5.32 5 6 5 C7.90232735 8.8046547 7.72301368 12.87456898 7 17 C5.13633199 20.17232517 2.66313242 22.48697141 0 25 C-0.79148437 25.82371094 -1.58296875 26.64742187 -2.3984375 27.49609375 C-6.81836326 32.08051513 -6.81836326 32.08051513 -9 34 C-9.66 34 -10.32 34 -11 34 C-11.2371875 34.56170898 -11.474375 35.12341797 -11.71875 35.70214844 C-13.29319357 38.52582658 -15.21684545 40.47614842 -17.5 42.765625 C-18.8303125 44.09980469 -18.8303125 44.09980469 -20.1875 45.4609375 C-21.115625 46.38132812 -22.04375 47.30171875 -23 48.25 C-23.928125 49.18585937 -24.85625 50.12171875 -25.8125 51.0859375 C-26.699375 51.97023438 -27.58625 52.85453125 -28.5 53.765625 C-29.3146875 54.57805664 -30.129375 55.39048828 -30.96875 56.22753906 C-33 58 -33 58 -35 58 C-35 58.66 -35 59.32 -35 60 C-35.66 60 -36.32 60 -37 60 C-37 60.66 -37 61.32 -37 62 C-38.64453125 63.5859375 -38.64453125 63.5859375 -40.8125 65.375 C-43.06250857 67.23566282 -44.90350285 68.86872703 -46.63671875 71.2265625 C-47.31154297 72.10441406 -47.31154297 72.10441406 -48 73 C-48.66 73 -49.32 73 -50 73 C-50 73.66 -50 74.32 -50 75 C-53.82413206 77.54942138 -55.45423416 77.59616601 -60 77 C-67.05653764 73.066003 -72.68819283 66.58641106 -78.3203125 60.88549805 C-79.88741853 59.29993521 -81.46258162 57.72272122 -83.0390625 56.14648438 C-93.29146423 45.84403264 -93.29146423 45.84403264 -93.5 40.1875 C-93.3987453 36.54765986 -93.03512122 34.20973571 -90.6875 31.375 C-87.04405971 28.37603618 -83.40677864 28.08513429 -78.80078125 28.359375 C-73.76538203 29.51112601 -70.62993261 32.46609736 -67 36 C-66.15566406 36.8146875 -65.31132812 37.629375 -64.44140625 38.46875 C-62.26222556 40.61733377 -60.11828296 42.79157734 -58 45 C-54.94782061 43.63676309 -52.85384407 42.09888579 -50.50415039 39.73120117 C-49.50775291 38.7345771 -49.50775291 38.7345771 -48.4912262 37.71781921 C-47.78384811 37.00011856 -47.07647003 36.28241791 -46.34765625 35.54296875 C-45.2419352 34.43300285 -45.2419352 34.43300285 -44.11387634 33.3006134 C-41.75867849 30.93423199 -39.41051683 28.56100478 -37.0625 26.1875 C-35.48548784 24.60045245 -33.9080189 23.01385864 -32.33007812 21.42773438 C-28.79280906 17.87058947 -25.26069218 14.30839531 -21.73074341 10.74398804 C-20.20802431 9.20961623 -18.68069542 7.680118 -17.15014648 6.15356445 C-15.68387113 4.68495824 -14.23862889 3.19512197 -12.8125 1.6875 C-8.72737413 -0.76357552 -4.65776188 -0.84066922 0 0 Z " fill="#FBFAF6" transform="translate(362,510)"/>
<path d="M0 0 C6.95959388 -0.40424643 12.06593119 1.27847363 17.80078125 5.23046875 C20.12432293 7.37791043 21.97918906 9.65138278 23.80078125 12.23046875 C24.72890625 13.37515625 24.72890625 13.37515625 25.67578125 14.54296875 C28.14411428 20.4395421 27.35112942 26.44495814 25.23828125 32.35546875 C21.8597803 39.86849884 17.07381178 45.62645712 9.25390625 48.60546875 C-0.45137169 51.07815103 -7.63963655 48.51567641 -15.94921875 43.60546875 C-21.06839334 38.20189558 -23.50702215 32.42875944 -23.63671875 24.98046875 C-23.45753427 20.76691865 -22.93036596 17.12554997 -21.19921875 13.23046875 C-22.18921875 12.90046875 -23.17921875 12.57046875 -24.19921875 12.23046875 C-23.32910156 11.86695313 -23.32910156 11.86695313 -22.44140625 11.49609375 C-13.69238287 7.85383127 -13.69238287 7.85383127 -7.19921875 1.23046875 C-4.81428655 0.41064831 -2.49771236 0.26174961 0 0 Z " fill="#F8AEAA" transform="translate(637.19921875,533.76953125)"/>
<path d="M0 0 C1.90265625 0.00193359 1.90265625 0.00193359 3.84375 0.00390625 C9.42322327 0.66557455 13.36456343 3.12459508 17.75 6.5 C18.41515625 7.00660156 19.0803125 7.51320313 19.765625 8.03515625 C24.49895571 11.86233131 26.11421291 16.41276502 26.8671875 22.31640625 C27.22504933 30.55775364 25.42394903 36.09448846 19.890625 42.21875 C14.5435892 47.22239818 8.855574 49.52502276 1.5625 49.875 C-5.02776056 49.65194503 -10.75669753 47.36181301 -15.5625 42.8125 C-17.5 40.4375 -17.5 40.4375 -17.5 38.4375 C-18.16 38.4375 -18.82 38.4375 -19.5 38.4375 C-19.06454806 34.37328186 -18.57364363 30.70083175 -17.46875 26.75 C-16.28043057 22.11782489 -16.2742825 17.69446505 -16.375 12.9375 C-16.38402344 12.11507812 -16.39304687 11.29265625 -16.40234375 10.4453125 C-16.42563135 8.44257917 -16.46149041 6.43999846 -16.5 4.4375 C-15.51 4.4375 -14.52 4.4375 -13.5 4.4375 C-12.6028125 3.78652344 -11.705625 3.13554688 -10.78125 2.46484375 C-6.8619452 0.04327328 -4.56786462 -0.06963208 0 0 Z " fill="#F9ADA7" transform="translate(410.5,533.5625)"/>
<path d="M0 0 C-3.22450112 2.67074064 -6.45962789 4.93772927 -10.0625 7.0625 C-15.72606202 10.6117673 -20.40666343 14.79596583 -25.22265625 19.3828125 C-27.46338598 21.49432997 -29.73467274 23.44157634 -32.125 25.375 C-36.7752139 29.37066698 -40.26606958 34.30630953 -43.8984375 39.20703125 C-46 42 -46 42 -48 44 C-48.64834654 42.730447 -49.29357815 41.45930294 -49.9375 40.1875 C-50.29714844 39.47980469 -50.65679687 38.77210938 -51.02734375 38.04296875 C-54.04166559 31.71168231 -53.70980069 24.82924743 -53 18 C-50.03668107 9.70052004 -43.79003223 3.59597345 -36.16015625 -0.5390625 C-24.34936832 -5.76559165 -11.54819846 -6.21826071 0 0 Z " fill="#94C4F1" transform="translate(349,301)"/>
<path d="M0 0 C0.7525708 0.00346436 1.5051416 0.00692871 2.28051758 0.01049805 C7.87634248 0.11998289 12.5899863 0.90440302 17.6875 3.3125 C18.6775 3.704375 19.6675 4.09625 20.6875 4.5 C27.62012637 8.68846177 34.61582897 14.16301264 36.6875 22.3125 C37.73915259 30.83642096 36.69317002 38.65202156 32.6875 46.3125 C31.6975 46.8075 31.6975 46.8075 30.6875 47.3125 C30.24921875 46.65765625 29.8109375 46.0028125 29.359375 45.328125 C17.19612797 27.82491586 0.67519429 15.38395317 -17.3125 4.3125 C-11.76661207 0.61524138 -6.55774455 -0.04883504 0 0 Z " fill="#98C7F0" transform="translate(713.3125,297.6875)"/>
<path d="M0 0 C2.23957906 1.61092529 3.44421439 2.54409149 4.55859375 5.12109375 C5.26095505 9.77090335 5.05172054 13.13484016 2.93359375 17.37109375 C-2.02060118 23.10752998 -6.61377364 26.75927773 -14.3671875 27.4921875 C-28.3052168 27.8776436 -28.3052168 27.8776436 -34.09375 23.60546875 C-37.19842946 20.18582181 -37.96791829 16.82904 -37.8046875 12.20703125 C-37.12637926 8.31222909 -35.33711012 5.75997244 -32.44140625 3.12109375 C-22.75933647 -2.93215504 -10.4385888 -6.27183402 0 0 Z " fill="#89B9EA" transform="translate(395.44140625,304.87890625)"/>
<path d="M0 0 C4.57147666 2.36101714 7.33712871 5.80316367 9.609375 10.34765625 C10.18922758 19.19040809 10.18922758 19.19040809 6.609375 23.34765625 C1.01045544 28.16533122 -5.33377002 28.11081453 -12.42578125 27.80078125 C-19.32373719 27.01244343 -24.18137735 24.66467207 -28.953125 19.66015625 C-31.88738418 14.93982627 -32.15008576 10.84952755 -31.390625 5.34765625 C-25.37176729 -6.49745573 -10.38756093 -3.83350463 0 0 Z " fill="#8CBBEB" transform="translate(680.390625,305.65234375)"/>
<path d="M0 0 C2.2109375 2.08203125 2.2109375 2.08203125 4.375 4.8125 C8.97387857 10.13395196 12.02340744 12.58192303 19.1953125 13.3359375 C27.14432977 13.69647608 33.58006618 12.95016875 40 8 C42.30506702 5.49590109 44.22807447 2.90278857 46 0 C48.3431213 0.25561323 50.67843403 0.59270772 53 1 C54.43304064 3.86608129 54.30644155 5.81300783 54 9 C50.25260929 16.33864015 44.13067511 21.50342248 36.5 24.4375 C25.67114482 27.5822433 14.79966076 27.41603928 4.5625 22.4921875 C-0.7045276 19.42510741 -5.65335846 15.79758498 -8 10 C-8.3923108 7.14331428 -8.28787367 4.92671563 -8 2 C-4.74669056 -0.16887296 -3.77575489 -0.62168774 0 0 Z " fill="#191F27" transform="translate(503,529)"/>
<path d="M0 0 C3.25 1.8125 3.25 1.8125 6 4 C6.54140625 4.43054688 7.0828125 4.86109375 7.640625 5.3046875 C10.04569267 8.30411098 9.51781659 11.56519316 9.4296875 15.26171875 C8.76491231 19.49814972 7.14466889 21.15482338 4 24 C0.27287842 25.86356079 -3.9420732 25.56549975 -8 25 C-11.62531608 23.1258346 -13.69121639 20.92635083 -15 17 C-15.61193379 11.84227236 -15.93981991 8.21922582 -12.6875 4 C-8.04862379 0.54781305 -5.8547465 -0.59539795 0 0 Z " fill="#F6F6F6" transform="translate(608,484)"/>
<path d="M0 0 C3.85852527 3.29109509 4.99871965 5.67597688 5.5625 10.75 C5.40181098 15.00022461 3.85494473 17.53656633 1.125 20.8125 C-3.33077347 23.78301564 -7.64942606 23.43987491 -12.875 22.8125 C-16.40714485 20.79413151 -18.67660052 18.73453467 -19.875 14.8125 C-20.29661717 9.50012372 -20.40659711 6.07477237 -16.875 1.8125 C-11.97720237 -2.36503327 -5.7722246 -2.38417972 0 0 Z " fill="#F6F7F7" transform="translate(461.875,486.1875)"/>
<path d="M0 0 C0.33 0 0.66 0 1 0 C3.93584962 13.55488017 5.40434532 26.78379072 5.375 40.625 C5.37693359 42.59533203 5.37693359 42.59533203 5.37890625 44.60546875 C5.25354385 55.89948147 3.84714266 66.86272816 1.375 77.875 C0.98441406 79.63457031 0.98441406 79.63457031 0.5859375 81.4296875 C0.29589844 82.70199219 0.29589844 82.70199219 0 84 C-0.66 83.67 -1.32 83.34 -2 83 C-2.04644627 73.35939637 -2.0819315 63.71883158 -2.10362434 54.07814026 C-2.11403852 49.60104404 -2.12815431 45.12402466 -2.15087891 40.64697266 C-2.17269191 36.32219696 -2.18458641 31.99749494 -2.18975449 27.67266846 C-2.1934351 26.02694541 -2.20062228 24.38122615 -2.21146011 22.73553467 C-2.22608768 20.42125902 -2.22797328 18.10728357 -2.22705078 15.79296875 C-2.231492 14.4783667 -2.23593323 13.16376465 -2.24050903 11.80932617 C-1.9750509 7.60484124 -1.13567134 4.04697396 0 0 Z " fill="#4381C9" transform="translate(730,507)"/>
<path d="M0 0 C11.55 0 23.1 0 35 0 C35 3.96 35 7.92 35 12 C23.45 12 11.9 12 0 12 C0 8.04 0 4.08 0 0 Z " fill="#2456A7" transform="translate(506,333)"/>
<path d="M0 0 C0.98608749 0.00212242 0.98608749 0.00212242 1.99209595 0.00428772 C4.07029981 0.00983863 6.14839177 0.0223816 8.2265625 0.03515625 C9.64452968 0.04017761 11.06249857 0.0447394 12.48046875 0.04882812 C15.93753572 0.05979188 19.39453817 0.07702204 22.8515625 0.09765625 C22.8515625 0.75765625 22.8515625 1.41765625 22.8515625 2.09765625 C24.00785156 2.19691406 25.16414063 2.29617188 26.35546875 2.3984375 C30.88397143 2.96935764 34.65895798 4.39706525 38.7890625 6.28515625 C39.82740234 6.7483728 39.82740234 6.7483728 40.88671875 7.22094727 C46.23841656 9.67067691 51.15361332 12.53504479 55.8515625 16.09765625 C55.5215625 16.75765625 55.1915625 17.41765625 54.8515625 18.09765625 C50.4882304 16.50720505 46.60369865 14.35589703 42.6015625 12.03515625 C41.96476562 11.67099609 41.32796875 11.30683594 40.671875 10.93164062 C35.99230498 8.23839873 35.99230498 8.23839873 34.8515625 7.09765625 C15.6436951 1.30528374 -5.55393645 3.64560696 -25.1484375 6.09765625 C-22.5672411 4.37685865 -20.72181287 3.48714623 -17.8359375 2.53515625 C-16.72798828 2.16197266 -16.72798828 2.16197266 -15.59765625 1.78125 C-10.38078175 0.32518455 -5.4028864 -0.02308926 0 0 Z " fill="#F4C85D" transform="translate(309.1484375,469.90234375)"/>
<path d="M0 0 C0.33 0 0.66 0 1 0 C1 16.5 1 33 1 50 C0.01 50.495 0.01 50.495 -1 51 C-1.33 50.34 -1.66 49.68 -2 49 C-2.433125 50.7015625 -2.433125 50.7015625 -2.875 52.4375 C-3.24625 53.613125 -3.6175 54.78875 -4 56 C-4.99 56.495 -4.99 56.495 -6 57 C-5.88204476 55.54107996 -5.75508849 54.08288823 -5.625 52.625 C-5.55539062 51.81289063 -5.48578125 51.00078125 -5.4140625 50.1640625 C-5.06920977 47.52886714 -4.57391595 45.05312033 -3.99609375 42.46484375 C-2.73232994 36.31146285 -2.58743369 30.20180258 -2.4375 23.9375 C-2.37789217 21.69649909 -2.31431973 19.45559884 -2.24609375 17.21484375 C-2.22216553 16.23636475 -2.1982373 15.25788574 -2.17358398 14.24975586 C-2 12 -2 12 -1 11 C-0.76636119 9.15108054 -0.58696365 7.29511969 -0.4375 5.4375 C-0.35371094 4.42558594 -0.26992188 3.41367187 -0.18359375 2.37109375 C-0.12300781 1.58863281 -0.06242188 0.80617188 0 0 Z " fill="#3875C0" transform="translate(695,517)"/>
<path d="M0 0 C0.99 0.33 1.98 0.66 3 1 C3 3.31 3 5.62 3 8 C2.01 8.495 2.01 8.495 1 9 C1 8.34 1 7.68 1 7 C0.34 7 -0.32 7 -1 7 C-1.13277344 7.66386719 -1.26554687 8.32773437 -1.40234375 9.01171875 C-3 17 -3 17 -3.62890625 19.71875 C-4.2414794 22.00325635 -4.2414794 22.00325635 -3 23.8125 C-0.02507445 25.57886204 2.61800486 25.19143369 6 25 C5.34 26.32 4.68 27.64 4 29 C4.71027344 29.20496094 5.42054688 29.40992188 6.15234375 29.62109375 C7.07144531 29.89050781 7.99054688 30.15992188 8.9375 30.4375 C9.85402344 30.70433594 10.77054687 30.97117187 11.71484375 31.24609375 C14 32 14 32 15 33 C16.84891946 33.23363881 18.70488031 33.41303635 20.5625 33.5625 C21.57441406 33.64628906 22.58632813 33.73007812 23.62890625 33.81640625 C24.80259766 33.90728516 24.80259766 33.90728516 26 34 C26 34.66 26 35.32 26 36 C24.02 35.67 22.04 35.34 20 35 C20 35.66 20 36.32 20 37 C14.62327197 36.44291358 10.54466966 34.55868725 5.8125 32.125 C4.74612305 31.59712891 4.74612305 31.59712891 3.65820312 31.05859375 C-3.87772552 27.24454896 -3.87772552 27.24454896 -6 23 C-6.29194896 17.85281286 -5.57624792 13.61856502 -4.125 8.6875 C-3.60292969 6.86798828 -3.60292969 6.86798828 -3.0703125 5.01171875 C-2 2 -2 2 0 0 Z " fill="#437CC1" transform="translate(373,655)"/>
<path d="M0 0 C2.39112209 3.58668313 2.23381027 5.16396569 2.1953125 9.41796875 C2.18886719 10.67158203 2.18242188 11.92519531 2.17578125 13.21679688 C2.15902344 14.52712891 2.14226563 15.83746094 2.125 17.1875 C2.11496639 18.52277987 2.1058412 19.85806689 2.09765625 21.19335938 C2.07405292 24.46242015 2.04112594 27.73112028 2 31 C1.01 31 0.02 31 -1 31 C-3.07092029 25.8720069 -3.30381069 21.43487949 -3.25 16 C-3.25773438 15.21882813 -3.26546875 14.43765625 -3.2734375 13.6328125 C-3.23843961 3.23843961 -3.23843961 3.23843961 0 0 Z " fill="#13161C" transform="translate(574,496)"/>
<path d="M0 0 C23.34215414 -0.21113506 46.6668493 0.42639656 70 1 C70 1.33 70 1.66 70 2 C62.91548915 2.84531643 55.94386509 3.14769172 48.8125 3.1328125 C47.78817871 3.13376923 46.76385742 3.13472595 45.70849609 3.13571167 C43.56396421 3.13638726 41.41943021 3.13457668 39.27490234 3.13037109 C35.98139946 3.12496949 32.6880302 3.1303597 29.39453125 3.13671875 C27.3046872 3.13605872 25.21484323 3.13477913 23.125 3.1328125 C22.13862549 3.13483673 21.15225098 3.13686096 20.13598633 3.13894653 C18.77316528 3.13421829 18.77316528 3.13421829 17.3828125 3.12939453 C16.58246582 3.12859894 15.78211914 3.12780334 14.95751953 3.12698364 C13 3 13 3 11 2 C9.12943209 1.7724985 7.25314042 1.59037189 5.375 1.4375 C4.37210937 1.35371094 3.36921875 1.26992188 2.3359375 1.18359375 C1.56507813 1.12300781 0.79421875 1.06242188 0 1 C0 0.67 0 0.34 0 0 Z " fill="#5B89C2" transform="translate(487,679)"/>
<path d="M0 0 C4.99275057 1.27721526 7.57611908 3.17330957 11 7 C9.02 9.31 7.04 11.62 5 14 C4.154375 13.360625 3.30875 12.72125 2.4375 12.0625 C-0.90728565 9.8033727 -3.97396992 9.32208241 -8 9 C-8 8.67 -8 8.34 -8 8 C-6.35 8 -4.7 8 -3 8 C-1.92474806 5.34771188 -0.90543849 2.71631546 0 0 Z " fill="#1C2027" transform="translate(460,476)"/>
<path d="M0 0 C0.66 0.33 1.32 0.66 2 1 C-0.78557587 4.91721606 -2.63776714 7.14455879 -7.25 8.6875 C-8.4875 9.120625 -9.725 9.55375 -11 10 C-11.33 10.99 -11.66 11.98 -12 13 C-14.97 12.505 -14.97 12.505 -18 12 C-18 12.66 -18 13.32 -18 14 C-17.34 14.33 -16.68 14.66 -16 15 C-18.60544881 15.86848294 -20.55379582 16.20653146 -23.25 16.4375 C-27.37447422 16.85602275 -31.05539894 17.74108477 -35 19 C-31.77350002 15.24245513 -28.68067123 13.86903769 -24.0625 12.1875 C-15.57420291 8.98507803 -7.56831017 5.04554011 0 0 Z " fill="#3D76C4" transform="translate(657,616)"/>
<path d="M0 0 C0.78632813 0.02578125 1.57265625 0.0515625 2.3828125 0.078125 C5.88821417 0.32609554 9.33474112 0.74414416 12.8125 1.25 C12.8125 2.24 12.8125 3.23 12.8125 4.25 C12.23806152 4.33564209 11.66362305 4.42128418 11.07177734 4.50952148 C8.44360617 4.90165543 5.81555248 5.29457143 3.1875 5.6875 C1.83205078 5.88956055 1.83205078 5.88956055 0.44921875 6.09570312 C-4.10313297 6.77689444 -8.65014699 7.47367548 -13.1875 8.25 C-13.1875 7.59 -13.1875 6.93 -13.1875 6.25 C-12.259375 5.816875 -11.33125 5.38375 -10.375 4.9375 C-7.2749332 3.52872888 -7.2749332 3.52872888 -5.75 1.66015625 C-3.72451483 -0.16784411 -2.69052493 -0.09523982 0 0 Z " fill="#4485C8" transform="translate(496.1875,375.75)"/>
<path d="M0 0 C14.85 0 29.7 0 45 0 C44.01 0.33 43.02 0.66 42 1 C42 1.66 42 2.32 42 3 C21.705 2.505 21.705 2.505 1 2 C0.67 1.34 0.34 0.68 0 0 Z " fill="#397ABB" transform="translate(509,377)"/>
<path d="M0 0 C5.75 0.75 5.75 0.75 8 3 C1.6 7.06153846 1.6 7.06153846 -1.4375 6.75 C-1.953125 6.5025 -2.46875 6.255 -3 6 C-3 6.66 -3 7.32 -3 8 C-4.85625 8.1546875 -4.85625 8.1546875 -6.75 8.3125 C-7.79414062 8.39951172 -7.79414062 8.39951172 -8.859375 8.48828125 C-11 8 -11 8 -15 3 C-7.08 2.505 -7.08 2.505 1 2 C0.67 1.34 0.34 0.68 0 0 Z " fill="#11151C" transform="translate(612,476)"/>
<path d="M0 0 C0.33 0.99 0.66 1.98 1 3 C-0.5159375 4.2375 -0.5159375 4.2375 -2.0625 5.5 C-4.64251467 7.71070839 -6.92992804 9.97132483 -9.125 12.5625 C-12.47627306 16.48501278 -16.01069439 20.19638831 -19.625 23.875 C-20.17559082 24.44677979 -20.72618164 25.01855957 -21.29345703 25.60766602 C-24.32620921 28.6664602 -26.76047034 30.75493367 -31 32 C-26.58940648 26.70728777 -21.91184482 21.82666832 -17 17 C-15.33194848 15.33471933 -13.66543801 13.66789441 -12 12 C-10.9623228 10.96215637 -9.92455879 9.92439954 -8.88671875 8.88671875 C-8.36142578 8.36142578 -7.83613281 7.83613281 -7.29492188 7.29492188 C-4.86328125 4.86328125 -2.43164062 2.43164062 0 0 Z " fill="#F6BE4E" transform="translate(367,529)"/>
<path d="M0 0 C1.21945312 -0.00515625 2.43890625 -0.0103125 3.6953125 -0.015625 C6.875 0.25 6.875 0.25 9.875 2.25 C8.26319592 4.20066193 7.44485222 5.17886446 4.88208008 5.4987793 C3.77449341 5.41237183 3.77449341 5.41237183 2.64453125 5.32421875 C1.44086914 5.24204102 1.44086914 5.24204102 0.21289062 5.15820312 C-0.62048828 5.08537109 -1.45386719 5.01253906 -2.3125 4.9375 C-3.15748047 4.87626953 -4.00246094 4.81503906 -4.87304688 4.75195312 C-6.95812095 4.59881209 -9.04175276 4.42625843 -11.125 4.25 C-11.455 3.59 -11.785 2.93 -12.125 2.25 C-7.98049905 0.2644216 -4.5732341 -0.01941925 0 0 Z " fill="#171C21" transform="translate(449.125,473.75)"/>
<path d="M0 0 C2 3 2 3 2 5 C3.32 4.34 4.64 3.68 6 3 C5.96519531 4.01320313 5.96519531 4.01320313 5.9296875 5.046875 C5.91164063 5.93890625 5.89359375 6.8309375 5.875 7.75 C5.84019531 9.07257813 5.84019531 9.07257813 5.8046875 10.421875 C6.01129275 13.14906426 6.52694159 14.71315408 8 17 C8.66 17.33 9.32 17.66 10 18 C10 18.66 10 19.32 10 20 C10.99 19.67 11.98 19.34 13 19 C13.10957031 19.63808594 13.21914063 20.27617187 13.33203125 20.93359375 C13.49058594 21.75988281 13.64914062 22.58617187 13.8125 23.4375 C13.96332031 24.26121094 14.11414063 25.08492188 14.26953125 25.93359375 C14.51058594 26.61550781 14.75164062 27.29742187 15 28 C15.99 28.33 16.98 28.66 18 29 C17.34 29.66 16.68 30.32 16 31 C8.10853986 22.1041722 1.21392407 12.09314234 0 0 Z " fill="#427FC7" transform="translate(290,413)"/>
<path d="M0 0 C0 3 0 3 -1.60473633 4.91357422 C-2.33974365 5.6201416 -3.07475098 6.32670898 -3.83203125 7.0546875 C-4.63060547 7.83457031 -5.42917969 8.61445313 -6.25195312 9.41796875 C-7.09693359 10.22878906 -7.94191406 11.03960937 -8.8125 11.875 C-10.46948793 13.47175712 -12.12199784 15.07317701 -13.76953125 16.6796875 C-14.50792236 17.38851074 -15.24631348 18.09733398 -16.00708008 18.82763672 C-18.0736196 21.08024834 -19.50689749 23.34079564 -21 26 C-22.5625 28.3125 -22.5625 28.3125 -24 30 C-24.66 30 -25.32 30 -26 30 C-21.91723893 18.53997264 -9.89652368 6.95112973 0 0 Z " fill="#3E7FCB" transform="translate(606,304)"/>
<path d="M0 0 C0.66 0 1.32 0 2 0 C2.33 0.99 2.66 1.98 3 3 C2.525625 3.45375 2.05125 3.9075 1.5625 4.375 C-0.09027808 5.93258204 -0.09027808 5.93258204 -1 8 C-2.65 8 -4.3 8 -6 8 C-6 7.34 -6 6.68 -6 6 C-9.56071312 4.95117609 -13.05527897 4.69613047 -16.75 4.4375 C-17.92046875 4.35371094 -19.0909375 4.26992188 -20.296875 4.18359375 C-21.18890625 4.12300781 -22.0809375 4.06242187 -23 4 C-23 3.01 -23 2.02 -23 1 C-22.06148193 1.04543945 -22.06148193 1.04543945 -21.10400391 1.09179688 C-18.27769291 1.22835901 -15.45134717 1.36418851 -12.625 1.5 C-11.14773438 1.57154297 -11.14773438 1.57154297 -9.640625 1.64453125 C-8.22910156 1.71220703 -8.22910156 1.71220703 -6.7890625 1.78125 C-5.48509521 1.8440918 -5.48509521 1.8440918 -4.15478516 1.90820312 C-2.77077412 1.96716394 -1.38526637 2 0 2 C0 1.34 0 0.68 0 0 Z " fill="#0A0D12" transform="translate(458,476)"/>
<path d="M0 0 C0.66 0.33 1.32 0.66 2 1 C1.67 2.32 1.34 3.64 1 5 C4.58327753 6.00217064 4.58327753 6.00217064 8 5 C7.65930765 8.15140423 7.41923159 9.60781561 5.0625 11.8125 C3 13 3 13 1 13 C1 11.68 1 10.36 1 9 C0.01 8.67 -0.98 8.34 -2 8 C-2.33 7.34 -2.66 6.68 -3 6 C-4.65 6.33 -6.3 6.66 -8 7 C-6.88424427 3.65273281 -6.48655378 3.37920252 -3.5625 1.75 C-2.386875 1.1725 -1.21125 0.595 0 0 Z " fill="#11151D" transform="translate(543,537)"/>
<path d="M0 0 C2.08304538 -0.05418326 4.16649768 -0.09287551 6.25 -0.125 C7.99023438 -0.15980469 7.99023438 -0.15980469 9.765625 -0.1953125 C12.82786046 -0.0103949 14.44202751 0.39176977 17 2 C16.67 2.99 16.34 3.98 16 5 C11.38 5 6.76 5 2 5 C1.34 3.35 0.68 1.7 0 0 Z " fill="#292D34" transform="translate(597,474)"/>
<path d="M0 0 C2.3431213 0.25561323 4.67843403 0.59270772 7 1 C8.35439668 3.70879335 8.06501451 6.00933268 8 9 C4.25 10.125 4.25 10.125 2 9 C2 8.34 2 7.68 2 7 C1.01 6.67 0.02 6.34 -1 6 C-0.67 4.02 -0.34 2.04 0 0 Z " fill="#0D1218" transform="translate(549,529)"/>
<path d="M0 0 C9.63813086 2.01566679 17.63155635 7.04745953 26 12 C26 12.99 26 13.98 26 15 C21.12226252 13.2237673 16.79331462 10.64296327 12.34765625 8.00976562 C8.33471576 5.6681487 4.30347705 3.75551046 0 2 C0 1.34 0 0.68 0 0 Z " fill="#ECC35D" transform="translate(338,473)"/>
<path d="M0 0 C0.33 0.99 0.66 1.98 1 3 C0.38125 3.2475 -0.2375 3.495 -0.875 3.75 C-3.10324763 4.79127059 -3.10324763 4.79127059 -3.8203125 6.75 C-5.41218523 9.78615462 -7.57375442 11.8378605 -10 14.25 C-10.886875 15.14203125 -11.77375 16.0340625 -12.6875 16.953125 C-15 19 -15 19 -17 19 C-17.2475 19.639375 -17.495 20.27875 -17.75 20.9375 C-19 23 -19 23 -21.078125 23.62890625 C-21.71234375 23.75136719 -22.3465625 23.87382813 -23 24 C-18.32533663 18.37696243 -13.32234333 13.20258446 -8.125 8.0625 C-7.34125 7.28326172 -6.5575 6.50402344 -5.75 5.70117188 C-3.83561419 3.79845915 -1.91891966 1.89813829 0 0 Z " fill="#F9EDCF" transform="translate(338,523)"/>
<path d="M0 0 C1.18603062 4.74412247 0.07846006 7.14732882 -1.75 11.4375 C-2.01554688 12.09298828 -2.28109375 12.74847656 -2.5546875 13.42382812 C-4.08964211 17.13826925 -5.68783419 20.70325809 -8 24 C-8.66 24 -9.32 24 -10 24 C-9.7834375 22.86111328 -9.7834375 22.86111328 -9.5625 21.69921875 C-9.376875 20.70535156 -9.19125 19.71148438 -9 18.6875 C-8.814375 17.70136719 -8.62875 16.71523438 -8.4375 15.69921875 C-7.92000204 12.96218195 -7.92000204 12.96218195 -8 10 C-6.68 10 -5.36 10 -4 10 C-2.68 6.7 -1.36 3.4 0 0 Z " fill="#3775C2" transform="translate(728,590)"/>
<path d="M0 0 C1.65 0 3.3 0 5 0 C5.33 1.98 5.66 3.96 6 6 C9.63 6.66 13.26 7.32 17 8 C17 8.66 17 9.32 17 10 C16.01 10 15.02 10 14 10 C14 10.66 14 11.32 14 12 C9.07534897 10.46104655 4.6817276 7.59570593 1 4 C0.265625 1.8046875 0.265625 1.8046875 0 0 Z " fill="#3D75BE" transform="translate(355,640)"/>
<path d="M0 0 C1.32 0.33 2.64 0.66 4 1 C3.524473 7.34035996 0.54204335 11.93846551 -3.43359375 16.7265625 C-6.03078607 18.83799566 -8.79689575 18.18130779 -12 18 C-9.08235 16.0549 -7.37462715 15.54723683 -4 15 C-4 14.34 -4 13.68 -4 13 C-3.34 13 -2.68 13 -2 13 C-1.855625 11.783125 -1.71125 10.56625 -1.5625 9.3125 C-1.17219047 6.17329623 -0.67648144 3.0924866 0 0 Z " fill="#2F6BBB" transform="translate(417,678)"/>
<path d="M0 0 C3.30171338 4.95257007 3.11722879 9.45651993 3.0625 15.3125 C3.05347656 16.56675781 3.04445313 17.82101562 3.03515625 19.11328125 C3.01775391 20.54220703 3.01775391 20.54220703 3 22 C2.34 21.01 1.68 20.02 1 19 C0.34 19.33 -0.32 19.66 -1 20 C-1.02696009 17.2291017 -1.04681952 14.4584655 -1.0625 11.6875 C-1.07087891 10.90181641 -1.07925781 10.11613281 -1.08789062 9.30664062 C-1.09111328 8.54931641 -1.09433594 7.79199219 -1.09765625 7.01171875 C-1.10289307 6.31522217 -1.10812988 5.61872559 -1.11352539 4.90112305 C-1 3 -1 3 0 0 Z " fill="#373C43" transform="translate(635,497)"/>
<path d="M0 0 C-1.45226142 3.82868919 -3.33318013 5.2538953 -7 7 C-8.32 7 -9.64 7 -11 7 C-11.33 5.35 -11.66 3.7 -12 2 C-8.09971775 -0.60018816 -4.52565431 -0.15085514 0 0 Z " fill="#2657A7" transform="translate(461,341)"/>
<path d="M0 0 C-1.56194358 3.63046346 -3.78965167 6.21193205 -6.4375 9.125 C-7.21996094 9.99382812 -8.00242187 10.86265625 -8.80859375 11.7578125 C-11 14 -11 14 -14 16 C-14.66 14.68 -15.32 13.36 -16 12 C-15.278125 11.608125 -14.55625 11.21625 -13.8125 10.8125 C-9.90359464 8.29342766 -6.99307579 5.04982298 -3.8125 1.6875 C-2 0 -2 0 0 0 Z " fill="#4D86C5" transform="translate(746,436)"/>
<path d="M0 0 C2 3 2 3 2 9 C5.96 9 9.92 9 14 9 C12 12 12 12 9.79296875 12.46875 C5.13942293 12.52456464 2.75239886 12.54172718 -1.125 9.75 C-3 7 -3 7 -3 3 C-1.5 1.25 -1.5 1.25 0 0 Z " fill="#396FB8" transform="translate(639,686)"/>
<path d="M0 0 C6.93 0.495 6.93 0.495 14 1 C14 1.66 14 2.32 14 3 C14.804375 3.2475 15.60875 3.495 16.4375 3.75 C17.7059375 4.36875 17.7059375 4.36875 19 5 C19.33 6.32 19.66 7.64 20 9 C10.1 5.04 10.1 5.04 0 1 C0 0.67 0 0.34 0 0 Z " fill="#527FAF" transform="translate(337,472)"/>
<path d="M0 0 C0.33 0 0.66 0 1 0 C2.61833614 11.73293699 2.87786942 22.68954752 -1 34 C-1.33 34 -1.66 34 -2 34 C-1.34 22.78 -0.68 11.56 0 0 Z " fill="#F9BC5A" transform="translate(393,533)"/>
<path d="M0 0 C6.27 0 12.54 0 19 0 C12.70807221 3.1459639 6.04559754 4.37082092 -1 4 C-0.67 2.68 -0.34 1.36 0 0 Z " fill="#3070C1" transform="translate(610,672)"/>
<path d="M0 0 C1.09570312 0.00902344 2.19140625 0.01804687 3.3203125 0.02734375 C4.16335938 0.03894531 5.00640625 0.05054688 5.875 0.0625 C5.875 1.0525 5.875 2.0425 5.875 3.0625 C0.925 4.5475 0.925 4.5475 -4.125 6.0625 C-4.785 5.0725 -5.445 4.0825 -6.125 3.0625 C-6.785 2.4025 -7.445 1.7425 -8.125 1.0625 C-5.36047967 -0.31976016 -3.0788637 -0.03275387 0 0 Z " fill="#3270C2" transform="translate(664.125,687.9375)"/>
<path d="M0 0 C1.18239258 0.07831055 1.18239258 0.07831055 2.38867188 0.15820312 C4.32201529 0.28709269 6.25482164 0.42399494 8.1875 0.5625 C7.8575 1.5525 7.5275 2.5425 7.1875 3.5625 C-0.06247422 3.84557925 -6.72211228 3.07224035 -13.8125 1.5625 C-13.8125 1.2325 -13.8125 0.9025 -13.8125 0.5625 C-9.12565199 -0.70548493 -4.77955063 -0.34855063 0 0 Z " fill="#467DC2" transform="translate(442.8125,672.4375)"/>
<path d="M0 0 C-1.32 0.33 -2.64 0.66 -4 1 C-4 1.66 -4 2.32 -4 3 C-3.34 3.33 -2.68 3.66 -2 4 C-4.60544881 4.86848294 -6.55379582 5.20653146 -9.25 5.4375 C-13.37447422 5.85602275 -17.05539894 6.74108477 -21 8 C-15.80182978 2.1917159 -7.81898813 -0.84529601 0 0 Z " fill="#3973C0" transform="translate(643,627)"/>
<path d="M0 0 C0 3 0 3 -1.375 4.4375 C-1.91125 4.953125 -2.4475 5.46875 -3 6 C-3.27328125 6.63421875 -3.5465625 7.2684375 -3.828125 7.921875 C-5.3001406 10.53224933 -6.76522245 11.37755587 -9.375 12.8125 C-10.14585937 13.25207031 -10.91671875 13.69164062 -11.7109375 14.14453125 C-14.31101605 15.11623296 -15.43992191 14.95272312 -18 14 C-11.47674419 9.26744186 -11.47674419 9.26744186 -8.4375 7.5625 C-5.13115989 5.44305121 -2.71195541 2.83809287 0 0 Z " fill="#4D76AA" transform="translate(371,603)"/>
<path d="M0 0 C0.78052734 -0.00322266 1.56105469 -0.00644531 2.36523438 -0.00976562 C8.17033019 0.04533019 8.17033019 0.04533019 10.4375 2.3125 C5.81290756 3.48950048 1.35883538 3.42658412 -3.375 3.375 C-4.55739258 3.36823242 -4.55739258 3.36823242 -5.76367188 3.36132812 C-7.69664761 3.34961312 -9.62958393 3.33167998 -11.5625 3.3125 C-8.2669567 -0.57091431 -4.79092582 -0.0993968 0 0 Z " fill="#508DCC" transform="translate(392.5625,288.6875)"/>
<path d="M0 0 C0.66 0 1.32 0 2 0 C3.35278115 1.98689731 4.68568305 3.98745218 6 6 C8.43387753 7.21693876 10.41838846 7.31959896 13.125 7.5625 C14.03507812 7.64628906 14.94515625 7.73007812 15.8828125 7.81640625 C16.58148438 7.87699219 17.28015625 7.93757813 18 8 C18 8.33 18 8.66 18 9 C12.06 9.495 12.06 9.495 6 10 C6 9.34 6 8.68 6 8 C5.34 8.66 4.68 9.32 4 10 C3.01 10 2.02 10 1 10 C0.67 6.7 0.34 3.4 0 0 Z " fill="#2C3034" transform="translate(441,501)"/>
<path d="M0 0 C1.98 0 3.96 0 6 0 C5.39009109 3.55780196 4.4216319 6.6828589 3 10 C2.01 9.34 1.02 8.68 0 8 C0.33 7.34 0.66 6.68 1 6 C0.01 5.67 -0.98 5.34 -2 5 C-1.34 3.35 -0.68 1.7 0 0 Z " fill="#1F4586" transform="translate(460,335)"/>
<path d="M0 0 C0.99 0 1.98 0 3 0 C3.33 4.95 3.66 9.9 4 15 C3.34 15 2.68 15 2 15 C-0.02558881 11.65060119 -0.21738987 9.13037449 -0.125 5.25 C-0.09792969 3.77273438 -0.09792969 3.77273438 -0.0703125 2.265625 C-0.04710937 1.51796875 -0.02390625 0.7703125 0 0 Z " fill="#4B80C1" transform="translate(484,310)"/>
<path d="M0 0 C1.63001953 0.01353516 1.63001953 0.01353516 3.29296875 0.02734375 C4.12441406 0.03894531 4.95585938 0.05054688 5.8125 0.0625 C6.1425 1.0525 6.4725 2.0425 6.8125 3.0625 C1.5325 3.0625 -3.7475 3.0625 -9.1875 3.0625 C-9.1875 2.4025 -9.1875 1.7425 -9.1875 1.0625 C-5.90230525 -0.03256492 -3.45086585 -0.03710608 0 0 Z " fill="#15181E" transform="translate(526.1875,551.9375)"/>
<path d="M0 0 C4.29 0 8.58 0 13 0 C11.515 2.475 11.515 2.475 10 5 C7.0625 5.625 7.0625 5.625 4 5 C2.68 3.35 1.36 1.7 0 0 Z " fill="#0A0F15" transform="translate(597,479)"/>
<path d="M0 0 C0.33 0.66 0.66 1.32 1 2 C1.66 2 2.32 2 3 2 C2.24669674 6.89647119 -0.49658356 10.74715297 -4.25 13.875 C-5.11625 14.431875 -5.11625 14.431875 -6 15 C-4.36041242 9.76727367 -2.61047965 4.84803364 0 0 Z " fill="#4B8BCC" transform="translate(339,452)"/>
<path d="M0 0 C4.03321763 1.21934486 7.54269479 2.55954927 11 5 C11 5.66 11 6.32 11 7 C9.37433394 6.52309796 7.74948689 6.04340334 6.125 5.5625 C5.22007812 5.29566406 4.31515625 5.02882813 3.3828125 4.75390625 C1 4 1 4 -1 3 C-0.67 3.99 -0.34 4.98 0 6 C-0.99 6 -1.98 6 -3 6 C-2.67 4.68 -2.34 3.36 -2 2 C-1.34 2 -0.68 2 0 2 C0 1.34 0 0.68 0 0 Z " fill="#6197D1" transform="translate(711,450)"/>
<path d="M0 0 C2 1 2 1 2.75 2.9375 C2.8325 3.618125 2.915 4.29875 3 5 C2.34 5.66 1.68 6.32 1 7 C0.38943913 9.02213278 -0.14363995 11.06827978 -0.625 13.125 C-0.88539063 14.22070312 -1.14578125 15.31640625 -1.4140625 16.4453125 C-1.60742188 17.28835938 -1.80078125 18.13140625 -2 19 C-2.66 19 -3.32 19 -4 19 C-3.46048934 12.31006781 -2.11293829 6.36539272 0 0 Z " fill="#5290CE" transform="translate(291,364)"/>
<path d="M0 0 C1.4589426 0.47730838 2.91713496 0.95691042 4.375 1.4375 C5.18710937 1.70433594 5.99921875 1.97117187 6.8359375 2.24609375 C9 3 9 3 11 4 C11 4.66 11 5.32 11 6 C7.04 6 3.08 6 -1 6 C-0.67 4.02 -0.34 2.04 0 0 Z " fill="#3472C1" transform="translate(408,626)"/>
<path d="M0 0 C-2 3 -2 3 -4.0625 4 C-6.35342991 4.89698316 -6.35342991 4.89698316 -7 8 C-8.9375 7.1875 -8.9375 7.1875 -11 6 C-11.33 5.01 -11.66 4.02 -12 3 C-4.71428571 -0.42857143 -4.71428571 -0.42857143 0 0 Z " fill="#3F6FAB" transform="translate(350,620)"/>
<path d="M0 0 C0.66 0 1.32 0 2 0 C0.82359152 5.45425749 -0.49242134 8.37194888 -5 12 C-5.99 12 -6.98 12 -8 12 C-8.33 11.01 -8.66 10.02 -9 9 C-8.071875 8.443125 -7.14375 7.88625 -6.1875 7.3125 C-3.03023608 5.02193598 -1.85163926 3.33295067 0 0 Z " fill="#4B87C8" transform="translate(558,319)"/>
<path d="M0 0 C2 1 4 2 6 3 C7.53668865 3.22467831 9.07968054 3.40796805 10.625 3.5625 C11.44226563 3.64628906 12.25953125 3.73007812 13.1015625 3.81640625 C13.72804688 3.87699219 14.35453125 3.93757813 15 4 C15 4.33 15 4.66 15 5 C9.72 5.66 4.44 6.32 -1 7 C-0.67 4.69 -0.34 2.38 0 0 Z " fill="#282D31" transform="translate(594,505)"/>
<path d="M0 0 C-0.33 1.65 -0.66 3.3 -1 5 C-5.35535069 3.83857315 -7.64619703 2.92300495 -10 -1 C-5.92224809 -1.9267618 -3.57818963 -2.33958553 0 0 Z " fill="#3B73B9" transform="translate(323,450)"/>
<path d="M0 0 C0 0.33 0 0.66 0 1 C-0.59167969 1.01417969 -1.18335938 1.02835938 -1.79296875 1.04296875 C-5.95713608 1.29431327 -8.46895502 1.64597001 -12 4 C-14.63249991 7.94874986 -14.88818676 11.33433828 -15 16 C-15.33 16 -15.66 16 -16 16 C-16.7613769 6.33897316 -16.7613769 6.33897316 -14.1875 1.8125 C-9.5207072 -0.84116649 -5.2480002 -0.41359021 0 0 Z " fill="#F3C45B" transform="translate(284,538)"/>
<path d="M0 0 C0 3.3 0 6.6 0 10 C-1.32 10 -2.64 10 -4 10 C-4.78260048 7.18263828 -5.19511109 5.54030762 -4.1875 2.75 C-3.02445592 1.0360403 -2.20942374 0 0 0 Z " fill="#0F1318" transform="translate(424,523)"/>
<path d="M0 0 C0 1.32 0 2.64 0 4 C-0.78375 4.268125 -1.5675 4.53625 -2.375 4.8125 C-5.28114923 5.84814432 -5.28114923 5.84814432 -7 9 C-7.66 9 -8.32 9 -9 9 C-8.6507442 5.85669777 -8.16074267 4.20508548 -6.1875 1.6875 C-4 0 -4 0 0 0 Z " fill="#3473C3" transform="translate(495,300)"/>
<path d="M0 0 C1.32 0.33 2.64 0.66 4 1 C2.86500606 4.29148243 2.00716624 4.9959869 -1.125 6.75 C-2.548125 7.36875 -2.548125 7.36875 -4 8 C-4 6.35 -4 4.7 -4 3 C-2.68 2.67 -1.36 2.34 0 2 C0 1.34 0 0.68 0 0 Z " fill="#3C7AC0" transform="translate(728,449)"/>
<path d="M0 0 C0.99 0.33 1.98 0.66 3 1 C2.67 2.65 2.34 4.3 2 6 C-4.93 5.505 -4.93 5.505 -12 5 C-12 4.67 -12 4.34 -12 4 C-10.7625 3.896875 -9.525 3.79375 -8.25 3.6875 C-4.63270442 3.26005943 -2.8395485 2.31370619 0 0 Z " fill="#12161B" transform="translate(613,506)"/>
<path d="M0 0 C2 3 2 3 2 5 C3.32 4.34 4.64 3.68 6 3 C6 6.96 6 10.92 6 15 C3.33986587 12.33986587 2.511763 11.36840488 1.3125 8.0625 C1.06113281 7.39347656 0.80976563 6.72445313 0.55078125 6.03515625 C0 4 0 4 0 0 Z " fill="#3778C3" transform="translate(290,413)"/>
<path d="M0 0 C2.64752004 2.57784846 4.94432065 4.91648098 7 8 C2 7 2 7 -3 6 C-2.42655063 3.13275314 -2.1385485 2.1385485 0 0 Z " fill="#3C6FB5" transform="translate(375,599)"/>
<path d="M0 0 C0 3.3 0 6.6 0 10 C-0.99 10.33 -1.98 10.66 -3 11 C-3 11.66 -3 12.32 -3 13 C-3.66 12.67 -4.32 12.34 -5 12 C-4.67 11.34 -4.34 10.68 -4 10 C-3.93049459 8.45976004 -3.91547643 6.91665012 -3.9375 5.375 C-3.94652344 4.55773437 -3.95554687 3.74046875 -3.96484375 2.8984375 C-3.97644531 2.27195312 -3.98804688 1.64546875 -4 1 C-1 0 -1 0 0 0 Z " fill="#1E242A" transform="translate(470,491)"/>
<path d="M0 0 C0.33 0.99 0.66 1.98 1 3 C-2.67410785 4.17571451 -6.16929183 4.07366746 -10 4 C-10.33 3.34 -10.66 2.68 -11 2 C-7.17010894 0.19769832 -4.21878192 -0.19622241 0 0 Z " fill="#262B31" transform="translate(448,474)"/>
<path d="M0 0 C0 0.99 0 1.98 0 3 C-1.91635217 3.05423638 -3.83314925 3.09289963 -5.75 3.125 C-7.35101563 3.15980469 -7.35101563 3.15980469 -8.984375 3.1953125 C-11.92470106 3.00487687 -13.52361878 2.52670104 -16 1 C-14.27111445 0.83044205 -12.54187557 0.66448486 -10.8125 0.5 C-9.84957031 0.4071875 -8.88664062 0.314375 -7.89453125 0.21875 C-5.24812333 0.01875156 -2.65239135 -0.03879183 0 0 Z " fill="#0A0E12" transform="translate(464,509)"/>
<path d="M0 0 C-0.33 0.66 -0.66 1.32 -1 2 C-5.92057839 3.32015518 -10.05313841 2.76761645 -15 2 C-15 1.67 -15 1.34 -15 1 C-12.69 1 -10.38 1 -8 1 C-8 0.34 -8 -0.32 -8 -1 C-4.37673261 -2.2077558 -3.35853631 -1.54311128 0 0 Z " fill="#5793CE" transform="translate(559,379)"/>
<path d="M0 0 C0.98484375 0.02707031 1.9696875 0.05414063 2.984375 0.08203125 C3.73203125 0.11683594 4.4796875 0.15164063 5.25 0.1875 C4.26 0.5175 3.27 0.8475 2.25 1.1875 C2.25 1.8475 2.25 2.5075 2.25 3.1875 C-1.71 3.1875 -5.67 3.1875 -9.75 3.1875 C-5.5452889 0.03396667 -4.89908143 -0.17496719 0 0 Z " fill="#3D7FC3" transform="translate(548.75,376.8125)"/>
<path d="M0 0 C0.99 0.33 1.98 0.66 3 1 C3 3.31 3 5.62 3 8 C2.01 8.495 2.01 8.495 1 9 C1 8.34 1 7.68 1 7 C0.01 7.33 -0.98 7.66 -2 8 C-1.125 1.125 -1.125 1.125 0 0 Z " fill="#2A68B8" transform="translate(373,655)"/>
<path d="M0 0 C0.33 0 0.66 0 1 0 C1.61528766 5.07612318 -0.38341651 7.82982006 -3 12 C-3.99 12 -4.98 12 -6 12 C-4.43358249 7.69235185 -2.31663844 3.93828536 0 0 Z " fill="#427CC5" transform="translate(682,587)"/>
<path d="M0 0 C7.42857143 -0.14285714 7.42857143 -0.14285714 11 1 C11 1.66 11 2.32 11 3 C7.04 3 3.08 3 -1 3 C-0.67 2.01 -0.34 1.02 0 0 Z " fill="#0A0D12" transform="translate(443,544)"/>
<path d="M0 0 C4.95 0.33 9.9 0.66 15 1 C15 1.66 15 2.32 15 3 C13.25406097 3.27694205 11.50281592 3.52057383 9.75 3.75 C8.77546875 3.88921875 7.8009375 4.0284375 6.796875 4.171875 C4 4 4 4 0 0 Z " fill="#427DC3" transform="translate(489,328)"/>
<path d="M0 0 C0 3.63 0 7.26 0 11 C-3.34905453 7.65094547 -3.89470285 5.50621146 -5 1 C-2 0 -2 0 0 0 Z " fill="#3D7AC4" transform="translate(688,486)"/>
<path d="M0 0 C2.61509191 2.61509191 2.65744789 4.51360479 3.046875 8.08984375 C3 10 3 10 1.5625 12 C1.046875 12.33 0.53125 12.66 0 13 C-1.28571429 4.57142857 -1.28571429 4.57142857 0 0 Z " fill="#5191D0" transform="translate(754,363)"/>
<path d="M0 0 C0 0.66 0 1.32 0 2 C-1.8984375 3.5078125 -1.8984375 3.5078125 -4.375 5.125 C-5.59316406 5.93324219 -5.59316406 5.93324219 -6.8359375 6.7578125 C-9 8 -9 8 -11 8 C-10.34 6.68 -9.68 5.36 -9 4 C-8.34 4 -7.68 4 -7 4 C-6.67 3.01 -6.34 2.02 -6 1 C-3.90006779 0.25486277 -2.22568901 0 0 0 Z " fill="#4386CB" transform="translate(438,401)"/>
<path d="M0 0 C0.99 0 1.98 0 3 0 C3.33 2.97 3.66 5.94 4 9 C3.01 9 2.02 9 1 9 C-0.4783226 6.04335481 -0.06032783 3.25770263 0 0 Z " fill="#133874" transform="translate(580,334)"/>
<path d="M0 0 C0.33 0.66 0.66 1.32 1 2 C-0.68988328 5.21077824 -2.6455311 8.23605824 -5 11 C-5.66 11 -6.32 11 -7 11 C-5.5140084 6.40693504 -3.14985318 3.56430755 0 0 Z " fill="#3777C4" transform="translate(587,323)"/>
<path d="M0 0 C0.33 0.99 0.66 1.98 1 3 C-2.3 5.97 -5.6 8.94 -9 12 C-9.66 11.67 -10.32 11.34 -11 11 C-7.37 7.37 -3.74 3.74 0 0 Z " fill="#F4CC70" transform="translate(367,529)"/>
<path d="M0 0 C0.33 0 0.66 0 1 0 C1.22245975 2.24864725 1.42746557 4.49902623 1.625 6.75 C1.74101563 8.00296875 1.85703125 9.2559375 1.9765625 10.546875 C1.99888599 13.83586903 1.77961002 15.31020776 0 18 C-1.03863773 11.76817361 -0.83288874 6.25307239 0 0 Z " fill="#1A2028" transform="translate(635,507)"/>
<path d="M0 0 C-0.33 0.99 -0.66 1.98 -1 3 C-3.97 3 -6.94 3 -10 3 C-10 2.01 -10 1.02 -10 0 C-6.33694766 -0.74926071 -3.57644848 -1.2380014 0 0 Z " fill="#1D2228" transform="translate(614,476)"/>
<path d="M0 0 C-4.95 1.485 -4.95 1.485 -10 3 C-10.33 1.68 -10.66 0.36 -11 -1 C-4.5 -2.25 -4.5 -2.25 0 0 Z " fill="#4A8ACB" transform="translate(480,385)"/>
<path d="M0 0 C10.55808656 -0.3690205 10.55808656 -0.3690205 15 2 C14.67 2.66 14.34 3.32 14 4 C12.22773547 3.71715982 10.457212 3.42339502 8.6875 3.125 C7.20830078 2.88136719 7.20830078 2.88136719 5.69921875 2.6328125 C3 2 3 2 0 0 Z " fill="#5D96CE" transform="translate(558,382)"/>
<path d="M0 0 C0.66 0.33 1.32 0.66 2 1 C0.02 3.97 -1.96 6.94 -4 10 C-4.66 9.34 -5.32 8.68 -6 8 C-4.26440562 4.942048 -2.61527381 2.36620011 0 0 Z " fill="#3271C3" transform="translate(674,600)"/>
<path d="M0 0 C0.66 0.33 1.32 0.66 2 1 C0.92807816 2.3218362 -0.15802695 3.63217927 -1.25 4.9375 C-1.85328125 5.66839844 -2.4565625 6.39929688 -3.078125 7.15234375 C-5.10741134 9.10326334 -6.254407 9.61731779 -9 10 C-8.06409496 8.8944811 -7.12620142 7.79064547 -6.1875 6.6875 C-5.66542969 6.07261719 -5.14335937 5.45773437 -4.60546875 4.82421875 C-3.12827531 3.14575321 -1.59960869 1.56117966 0 0 Z " fill="#FAF0D5" transform="translate(350,511)"/>
<path d="M0 0 C-0.3125 1.9375 -0.3125 1.9375 -1 4 C-1.99 4.33 -2.98 4.66 -4 5 C-5.20882096 7.00016466 -5.20882096 7.00016466 -6 9 C-6 8.34 -6 7.68 -6 7 C-6.66 6.67 -7.32 6.34 -8 6 C-3.375 0 -3.375 0 0 0 Z " fill="#1F2328" transform="translate(429,484)"/>
<path d="M0 0 C0.66 1.32 1.32 2.64 2 4 C0.6875 6 0.6875 6 -1 8 C-1.99 8 -2.98 8 -4 8 C-2.25 2.25 -2.25 2.25 0 0 Z " fill="#4687CD" transform="translate(299,349)"/>
<path d="M0 0 C4.29 0.33 8.58 0.66 13 1 C13 1.33 13 1.66 13 2 C8.71 2.66 4.42 3.32 0 4 C0 2.68 0 1.36 0 0 Z " fill="#4C8BCF" transform="translate(557,348)"/>
<path d="M0 0 C0.66 0 1.32 0 2 0 C1.67 1.65 1.34 3.3 1 5 C-0.32 5.33 -1.64 5.66 -3 6 C-3.33 4.35 -3.66 2.7 -4 1 C-2.68 1.33 -1.36 1.66 0 2 C0 1.34 0 0.68 0 0 Z " fill="#3B76C2" transform="translate(716,615)"/>
<path d="M0 0 C0.33 0.99 0.66 1.98 1 3 C-1.64 5.31 -4.28 7.62 -7 10 C-7 7 -7 7 -5.46875 5.17578125 C-4.8190625 4.56089844 -4.169375 3.94601562 -3.5 3.3125 C-2.8503125 2.68988281 -2.200625 2.06726563 -1.53125 1.42578125 C-0.77328125 0.72001953 -0.77328125 0.72001953 0 0 Z " fill="#F6CA63" transform="translate(259,492)"/>
<path d="M0 0 C0.66 0 1.32 0 2 0 C2.33 0.99 2.66 1.98 3 3 C2.525625 3.45375 2.05125 3.9075 1.5625 4.375 C-0.09027808 5.93258204 -0.09027808 5.93258204 -1 8 C-2.65 8 -4.3 8 -6 8 C-6 7.34 -6 6.68 -6 6 C-4.68 5.34 -3.36 4.68 -2 4 C-2 3.34 -2 2.68 -2 2 C-1.34 2 -0.68 2 0 2 C0 1.34 0 0.68 0 0 Z " fill="#0D1118" transform="translate(458,476)"/>
<path d="M0 0 C1.43793392 0.31049726 2.8753318 0.6234776 4.3125 0.9375 C5.11300781 1.11152344 5.91351562 1.28554688 6.73828125 1.46484375 C9 2 9 2 12 3 C11.67 3.99 11.34 4.98 11 6 C10.236875 5.67 9.47375 5.34 8.6875 5 C6.00930865 3.82563314 6.00930865 3.82563314 3 4 C3 3.34 3 2.68 3 2 C2.01 2 1.02 2 0 2 C0 1.34 0 0.68 0 0 Z " fill="#5690CE" transform="translate(578,352)"/>
<path d="M0 0 C3.33727786 1.17255709 5.77437487 2.18868404 8 5 C8 5.66 8 6.32 8 7 C6.35 7 4.7 7 3 7 C2.87625 6.360625 2.7525 5.72125 2.625 5.0625 C2.315625 4.0415625 2.315625 4.0415625 2 3 C1.34 2.67 0.68 2.34 0 2 C0 1.34 0 0.68 0 0 Z " fill="#387BC5" transform="translate(437,304)"/>
<path d="M0 0 C0 3.67718093 -0.82184858 5.07076189 -3 8 C-5.6875 9.3125 -5.6875 9.3125 -8 10 C-8 9.34 -8 8.68 -8 8 C-7.34 8 -6.68 8 -6 8 C-5.7525 7.4225 -5.505 6.845 -5.25 6.25 C-3.83316683 3.6997003 -2.12372463 1.98214299 0 0 Z " fill="#F5C667" transform="translate(320,575)"/>
<path d="M0 0 C0.66 0 1.32 0 2 0 C3.4783226 2.95664519 3.06032783 5.74229737 3 9 C2.01 9.495 2.01 9.495 1 10 C1 8.02 1 6.04 1 4 C0.34 4 -0.32 4 -1 4 C-0.67 2.68 -0.34 1.36 0 0 Z " fill="#080B0D" transform="translate(421,491)"/>
<path d="M0 0 C0.598125 0.474375 1.19625 0.94875 1.8125 1.4375 C4.00382924 3.16465744 4.00382924 3.16465744 7 4 C7.6875 6.0625 7.6875 6.0625 8 8 C4.22272911 6.18690997 0.62730178 4.0926741 -3 2 C-2.01 1.34 -1.02 0.68 0 0 Z " fill="#5081B5" transform="translate(360,480)"/>
<path d="M0 0 C-0.33 0.99 -0.66 1.98 -1 3 C-5.455 3.495 -5.455 3.495 -10 4 C-6.2751896 0.2751896 -5.07777425 -0.13362564 0 0 Z " fill="#5295DC" transform="translate(461,341)"/>
<path d="M0 0 C2.97 0 5.94 0 9 0 C9 0.66 9 1.32 9 2 C8.01 2 7.02 2 6 2 C6 2.66 6 3.32 6 4 C1.125 2.25 1.125 2.25 0 0 Z " fill="#356FBA" transform="translate(363,648)"/>
<path d="M0 0 C1.65 0 3.3 0 5 0 C4.67 1.32 4.34 2.64 4 4 C0.7 4 -2.6 4 -6 4 C-6 3.67 -6 3.34 -6 3 C-3.69 3 -1.38 3 1 3 C0.67 2.01 0.34 1.02 0 0 Z " fill="#363940" transform="translate(605,544)"/>
<path d="M0 0 C1.98 0.495 1.98 0.495 4 1 C4 4.10551666 3.4606285 5.35261084 2 8 C2 7.34 2 6.68 2 6 C1.01 5.67 0.02 5.34 -1 5 C-0.67 3.35 -0.34 1.7 0 0 Z " fill="#0A0F16" transform="translate(549,530)"/>
<path d="M0 0 C2.79872437 2.52788007 4.45773019 4.20411134 5 8 C3.125 7.875 3.125 7.875 1 7 C-0.25 3.9375 -0.25 3.9375 -1 1 C-0.67 0.67 -0.34 0.34 0 0 Z " fill="#3C7DC5" transform="translate(460,327)"/>
<path d="M0 0 C3.63 0 7.26 0 11 0 C11 0.66 11 1.32 11 2 C8.03 1.505 8.03 1.505 5 1 C5 1.66 5 2.32 5 3 C3.35 2.67 1.7 2.34 0 2 C0 1.34 0 0.68 0 0 Z " fill="#3169B7" transform="translate(388,689)"/>
<path d="M0 0 C0.66 0 1.32 0 2 0 C0.70700306 2.88437779 -0.65941363 4.87219421 -3 7 C-4.32 6.34 -5.64 5.68 -7 5 C-6.67 4.34 -6.34 3.68 -6 3 C-4.02 3.495 -4.02 3.495 -2 4 C-2 3.34 -2 2.68 -2 2 C-1.34 2 -0.68 2 0 2 C0 1.34 0 0.68 0 0 Z " fill="#F2B53B" transform="translate(309,549)"/>
<path d="M0 0 C2.50298434 2.93828597 3.46930939 5.17902761 4 9 C3.34 9 2.68 9 2 9 C0.45428722 6.68143083 -0.79618552 4.49361571 -2 2 C-1.34 1.34 -0.68 0.68 0 0 Z " fill="#558FCC" transform="translate(715,465)"/>
<path d="M0 0 C2.31 0 4.62 0 7 0 C6.67 0.66 6.34 1.32 6 2 C5.01 2 4.02 2 3 2 C3 2.66 3 3.32 3 4 C1.68 3.67 0.36 3.34 -1 3 C-0.67 2.01 -0.34 1.02 0 0 Z " fill="#346EBB" transform="translate(372,680)"/>
<path d="M0 0 C0.99 0 1.98 0 3 0 C3 1.98 3 3.96 3 6 C1.68 5.67 0.36 5.34 -1 5 C-0.67 3.35 -0.34 1.7 0 0 Z " fill="#336DBC" transform="translate(349,632)"/>
<path d="M0 0 C-0.66 1.98 -1.32 3.96 -2 6 C-2.66 6 -3.32 6 -4 6 C-4 5.34 -4 4.68 -4 4 C-5.32 3.67 -6.64 3.34 -8 3 C-2.25 0 -2.25 0 0 0 Z " fill="#447DC9" transform="translate(647,623)"/>
<path d="M0 0 C1.875 0.3125 1.875 0.3125 4 1 C4.66 1.99 5.32 2.98 6 4 C4.02 4.33 2.04 4.66 0 5 C-0.33 4.01 -0.66 3.02 -1 2 C-0.67 1.34 -0.34 0.68 0 0 Z " fill="#F2C2BF" transform="translate(425,540)"/>
<path d="M0 0 C3 1 3 1 5 2 C5 3.32 5 4.64 5 6 C2.525 5.01 2.525 5.01 0 4 C0 2.68 0 1.36 0 0 Z " fill="#11151B" transform="translate(582,536)"/>
<path d="M0 0 C0.66 0.99 1.32 1.98 2 3 C1.690625 3.598125 1.38125 4.19625 1.0625 4.8125 C-0.10209704 7.08956772 -0.10209704 7.08956772 -1 10 C-1.66 10 -2.32 10 -3 10 C-1.125 2.25 -1.125 2.25 0 0 Z " fill="#F4C04E" transform="translate(244,514)"/>
<path d="M0 0 C0.66 0 1.32 0 2 0 C1.49202991 4.3177458 0.80317221 8.03302114 -1 12 C-2.45606519 7.47907032 -1.27032841 4.48351204 0 0 Z " fill="#397BC4" transform="translate(369,474)"/>
<path d="M0 0 C1.70884005 1.62339805 3.37446717 3.29319053 5 5 C5 5.66 5 6.32 5 7 C3.35 6.67 1.7 6.34 0 6 C0 4.02 0 2.04 0 0 Z " fill="#4888CA" transform="translate(744,345)"/>
<path d="M0 0 C0.66 0.66 1.32 1.32 2 2 C4.65537372 2.56520003 7.29144713 2.73788198 10 3 C10 3.33 10 3.66 10 4 C4.06 4.495 4.06 4.495 -2 5 C-1.34 3.35 -0.68 1.7 0 0 Z " fill="#ECDFDC" transform="translate(633,530)"/>
<path d="M0 0 C0.66 0.33 1.32 0.66 2 1 C0.68 2.65 -0.64 4.3 -2 6 C-3.32 5.67 -4.64 5.34 -6 5 C-4.02 3.35 -2.04 1.7 0 0 Z " fill="#255AA1" transform="translate(343,439)"/>
<path d="M0 0 C0.66 0 1.32 0 2 0 C2.33 1.65 2.66 3.3 3 5 C3.99 5.33 4.98 5.66 6 6 C5.34 6.66 4.68 7.32 4 8 C2.35 6.02 0.7 4.04 -1 2 C-0.67 1.34 -0.34 0.68 0 0 Z " fill="#4F89CB" transform="translate(302,436)"/>
<path d="M0 0 C0.66 0.33 1.32 0.66 2 1 C-0.25 3.5625 -0.25 3.5625 -3 6 C-4.32 5.67 -5.64 5.34 -7 5 C-4.69 3.35 -2.38 1.7 0 0 Z " fill="#5C7D9F" transform="translate(360,612)"/>
<path d="M0 0 C0.33 0 0.66 0 1 0 C1.33 3.3 1.66 6.6 2 10 C1.01 10.66 0.02 11.32 -1 12 C-0.67 8.04 -0.34 4.08 0 0 Z " fill="#4F89C8" transform="translate(730,507)"/>
<path d="M0 0 C0.99 0.33 1.98 0.66 3 1 C2.34 2.65 1.68 4.3 1 6 C0.01 5.67 -0.98 5.34 -2 5 C-1.34 3.35 -0.68 1.7 0 0 Z " fill="#397BC7" transform="translate(309,440)"/>
<path d="M0 0 C0.99 0 1.98 0 3 0 C3.625 2.375 3.625 2.375 4 5 C3.34 5.66 2.68 6.32 2 7 C0.5393715 4.35261084 0 3.10551666 0 0 Z " fill="#387CC3" transform="translate(292,362)"/>
<path d="M0 0 C0.33 0.99 0.66 1.98 1 3 C-0.65 4.65 -2.3 6.3 -4 8 C-4.33 6.68 -4.66 5.36 -5 4 C-3.35 2.68 -1.7 1.36 0 0 Z " fill="#295498" transform="translate(460,345)"/>
<path d="M0 0 C1.98 0 3.96 0 6 0 C6 0.99 6 1.98 6 3 C3.69 3 1.38 3 -1 3 C-0.67 2.01 -0.34 1.02 0 0 Z " fill="#3B7CC3" transform="translate(544,329)"/>
<path d="M0 0 C0.99 0.66 1.98 1.32 3 2 C1.1875 4 1.1875 4 -1 6 C-1.99 6 -2.98 6 -4 6 C-4 4 -4 4 -2 1.875 C-1.34 1.25625 -0.68 0.6375 0 0 Z " fill="#3771BF" transform="translate(680,681)"/>
<path d="M0 0 C2.31 0 4.62 0 7 0 C5.71034824 1.37562854 4.37310707 2.70766393 3 4 C2.34 4 1.68 4 1 4 C0.67 2.68 0.34 1.36 0 0 Z " fill="#3F7AC2" transform="translate(680,649)"/>
<path d="M0 0 C2.31 0.33 4.62 0.66 7 1 C6.34 2.32 5.68 3.64 5 5 C4.01 4.67 3.02 4.34 2 4 C2.33 3.34 2.66 2.68 3 2 C2.01 1.34 1.02 0.68 0 0 Z " fill="#1C2228" transform="translate(549,529)"/>
<path d="M0 0 C0.66 0 1.32 0 2 0 C1.50168276 3.68754757 0.89932357 5.60490662 -2 8 C-2 4.23312136 -1.76462683 3.08809695 0 0 Z " fill="#1C2129" transform="translate(476,527)"/>
<path d="M0 0 C0 0.66 0 1.32 0 2 C-3.41831915 4.5393228 -5.75776898 5.3636198 -10 5 C-8.28489314 1.56978628 -3.75681361 0 0 0 Z " fill="#F6C860" transform="translate(284,476)"/>
<path d="M0 0 C1.0625 1.875 1.0625 1.875 2 4 C1.67 4.66 1.34 5.32 1 6 C2.98 6 4.96 6 7 6 C7 6.33 7 6.66 7 7 C4.36 7 1.72 7 -1 7 C-1 4.37886292 -0.68707555 2.49064888 0 0 Z " fill="#325794" transform="translate(323,448)"/>
<path d="M0 0 C1.98 0.495 1.98 0.495 4 1 C2.02 3.97 2.02 3.97 0 7 C-0.93423645 3.98968256 -1.04449911 3.13349732 0 0 Z " fill="#4885CA" transform="translate(747,429)"/>
<path d="M0 0 C-0.66 1.65 -1.32 3.3 -2 5 C-2.99 4.34 -3.98 3.68 -5 3 C-4.67 2.34 -4.34 1.68 -4 1 C-4.66 0.67 -5.32 0.34 -6 0 C-3 -1 -3 -1 0 0 Z " fill="#3568AE" transform="translate(465,340)"/>
<path d="M0 0 C0.99 0.33 1.98 0.66 3 1 C1.6875 3 1.6875 3 0 5 C-0.99 5 -1.98 5 -3 5 C-1.125 1.125 -1.125 1.125 0 0 Z " fill="#2F6BBD" transform="translate(663,611)"/>
<path d="M0 0 C0.99 0.33 1.98 0.66 3 1 C3 1.66 3 2.32 3 3 C2.34 3 1.68 3 1 3 C1.33 3.99 1.66 4.98 2 6 C0.68 5.34 -0.64 4.68 -2 4 C-1.34 2.68 -0.68 1.36 0 0 Z " fill="#0F1418" transform="translate(429,536)"/>
<path d="M0 0 C0.66 0.99 1.32 1.98 2 3 C1.1875 4.9375 1.1875 4.9375 0 7 C-0.99 7.33 -1.98 7.66 -3 8 C-1.125 2.25 -1.125 2.25 0 0 Z " fill="#578FCE" transform="translate(339,452)"/>
<path d="M0 0 C0 1.98 0 3.96 0 6 C-0.66 6 -1.32 6 -2 6 C-3.625 4 -3.625 4 -5 2 C-1.125 0 -1.125 0 0 0 Z " fill="#26569E" transform="translate(724,451)"/>
<path d="M0 0 C0.66 0.66 1.32 1.32 2 2 C0.35 4.31 -1.3 6.62 -3 9 C-3.33 7.68 -3.66 6.36 -4 5 C-3.34 5 -2.68 5 -2 5 C-1.34 3.35 -0.68 1.7 0 0 Z " fill="#4989CA" transform="translate(388,444)"/>
<path d="M0 0 C0.66 0 1.32 0 2 0 C2 1.32 2 2.64 2 4 C2.99 4.33 3.98 4.66 5 5 C4.34 6.32 3.68 7.64 3 9 C2.01 6.03 1.02 3.06 0 0 Z " fill="#DDEBF2" transform="translate(751,354)"/>
<path d="M0 0 C1.98 0.99 1.98 0.99 4 2 C3.67 3.65 3.34 5.3 3 7 C2.34 7 1.68 7 1 7 C0.67 4.69 0.34 2.38 0 0 Z " fill="#3F82CB" transform="translate(447,312)"/>
</svg>
